<mxfile host="Electron" agent="Mozilla/5.0 (Windows NT 10.0; Win64; x64) AppleWebKit/537.36 (KHTML, like Gecko) draw.io/27.0.9 Chrome/134.0.6998.205 Electron/35.4.0 Safari/537.36" version="27.0.9" pages="8">
  <diagram name="ams2_dash_main" id="l7DJGxeZR-wFtnM_WyUQ">
    <mxGraphModel dx="946" dy="662" grid="1" gridSize="10" guides="1" tooltips="1" connect="1" arrows="1" fold="1" page="1" pageScale="1" pageWidth="827" pageHeight="1169" background="#000000" math="0" shadow="0">
      <root>
        <mxCell id="0" />
        <mxCell id="1" parent="0" />
        <mxCell id="R4oAzKSPQZAmDeBspqBQ-1" value="" style="rounded=0;whiteSpace=wrap;html=1;fillColor=#000000;" parent="1" vertex="1">
          <mxGeometry x="200" y="120" width="480" height="272" as="geometry" />
        </mxCell>
        <mxCell id="R4oAzKSPQZAmDeBspqBQ-4" value="" style="endArrow=none;html=1;rounded=0;strokeColor=#999999;strokeWidth=3;" parent="1" edge="1">
          <mxGeometry width="50" height="50" relative="1" as="geometry">
            <mxPoint x="200" y="180" as="sourcePoint" />
            <mxPoint x="680" y="180" as="targetPoint" />
          </mxGeometry>
        </mxCell>
        <mxCell id="R4oAzKSPQZAmDeBspqBQ-5" value="" style="endArrow=none;html=1;rounded=0;strokeColor=#999999;strokeWidth=3;exitX=0.25;exitY=1;exitDx=0;exitDy=0;entryX=0.25;entryY=0;entryDx=0;entryDy=0;" parent="1" edge="1">
          <mxGeometry width="50" height="50" relative="1" as="geometry">
            <mxPoint x="359.9999999999999" y="392" as="sourcePoint" />
            <mxPoint x="359.9999999999999" y="120" as="targetPoint" />
          </mxGeometry>
        </mxCell>
        <mxCell id="R4oAzKSPQZAmDeBspqBQ-6" value="" style="endArrow=none;html=1;rounded=0;strokeColor=#999999;strokeWidth=3;exitX=0.25;exitY=1;exitDx=0;exitDy=0;" parent="1" edge="1">
          <mxGeometry width="50" height="50" relative="1" as="geometry">
            <mxPoint x="520" y="392" as="sourcePoint" />
            <mxPoint x="520" y="180" as="targetPoint" />
          </mxGeometry>
        </mxCell>
        <mxCell id="R4oAzKSPQZAmDeBspqBQ-7" value="" style="endArrow=none;html=1;rounded=0;strokeWidth=3;strokeColor=#999999;exitX=0;exitY=0.5;exitDx=0;exitDy=0;" parent="1" edge="1">
          <mxGeometry width="50" height="50" relative="1" as="geometry">
            <mxPoint x="199.9999999999999" y="320" as="sourcePoint" />
            <mxPoint x="360" y="320" as="targetPoint" />
          </mxGeometry>
        </mxCell>
        <mxCell id="R4oAzKSPQZAmDeBspqBQ-8" value="" style="endArrow=none;html=1;rounded=0;strokeWidth=3;strokeColor=#999999;exitX=0;exitY=0.5;exitDx=0;exitDy=0;" parent="1" edge="1">
          <mxGeometry width="50" height="50" relative="1" as="geometry">
            <mxPoint x="200" y="350" as="sourcePoint" />
            <mxPoint x="360.0000000000001" y="350" as="targetPoint" />
          </mxGeometry>
        </mxCell>
        <mxCell id="R4oAzKSPQZAmDeBspqBQ-9" value="" style="endArrow=none;html=1;rounded=0;strokeWidth=3;strokeColor=#999999;" parent="1" edge="1">
          <mxGeometry width="50" height="50" relative="1" as="geometry">
            <mxPoint x="250" y="392" as="sourcePoint" />
            <mxPoint x="250" y="320" as="targetPoint" />
          </mxGeometry>
        </mxCell>
        <mxCell id="R4oAzKSPQZAmDeBspqBQ-10" value="" style="endArrow=none;html=1;rounded=0;strokeWidth=3;strokeColor=#999999;" parent="1" edge="1">
          <mxGeometry width="50" height="50" relative="1" as="geometry">
            <mxPoint x="305" y="392" as="sourcePoint" />
            <mxPoint x="305" y="320" as="targetPoint" />
          </mxGeometry>
        </mxCell>
        <mxCell id="R4oAzKSPQZAmDeBspqBQ-13" value="" style="endArrow=none;html=1;rounded=0;strokeWidth=3;strokeColor=#999999;exitX=0;exitY=0.5;exitDx=0;exitDy=0;" parent="1" edge="1">
          <mxGeometry width="50" height="50" relative="1" as="geometry">
            <mxPoint x="520" y="300" as="sourcePoint" />
            <mxPoint x="680.0000000000001" y="300" as="targetPoint" />
          </mxGeometry>
        </mxCell>
        <mxCell id="R4oAzKSPQZAmDeBspqBQ-14" value="" style="endArrow=none;html=1;rounded=0;strokeWidth=3;strokeColor=#999999;" parent="1" edge="1">
          <mxGeometry width="50" height="50" relative="1" as="geometry">
            <mxPoint x="280" y="180" as="sourcePoint" />
            <mxPoint x="280" y="120" as="targetPoint" />
          </mxGeometry>
        </mxCell>
        <mxCell id="R4oAzKSPQZAmDeBspqBQ-16" value="" style="endArrow=none;html=1;rounded=0;strokeWidth=3;strokeColor=#999999;" parent="1" edge="1">
          <mxGeometry width="50" height="50" relative="1" as="geometry">
            <mxPoint x="520" y="180" as="sourcePoint" />
            <mxPoint x="520" y="120" as="targetPoint" />
          </mxGeometry>
        </mxCell>
        <mxCell id="9XydyOoZIC-MqF_aY8BW-2" value="" style="rounded=0;whiteSpace=wrap;html=1;fillColor=#FF8000;strokeColor=#d79b00;opacity=30;" parent="1" vertex="1">
          <mxGeometry x="280" y="120" width="80" height="60" as="geometry" />
        </mxCell>
        <mxCell id="9XydyOoZIC-MqF_aY8BW-3" value="" style="rounded=0;whiteSpace=wrap;html=1;fillColor=#FF0000;strokeColor=#b85450;opacity=30;" parent="1" vertex="1">
          <mxGeometry x="200" y="120" width="80" height="60" as="geometry" />
        </mxCell>
        <mxCell id="9XydyOoZIC-MqF_aY8BW-7" value="" style="rounded=0;whiteSpace=wrap;html=1;fillColor=#B3B3B3;strokeColor=#666666;opacity=30;fontColor=#333333;" parent="1" vertex="1">
          <mxGeometry x="360" y="120" width="160" height="60" as="geometry" />
        </mxCell>
        <mxCell id="9XydyOoZIC-MqF_aY8BW-8" value="" style="rounded=0;whiteSpace=wrap;html=1;fillColor=#7F00FF;strokeColor=#9673a6;opacity=30;" parent="1" vertex="1">
          <mxGeometry x="520" y="300" width="160" height="92" as="geometry" />
        </mxCell>
        <mxCell id="9XydyOoZIC-MqF_aY8BW-9" value="" style="rounded=0;whiteSpace=wrap;html=1;fillColor=#FFFF00;strokeColor=#9673a6;opacity=30;" parent="1" vertex="1">
          <mxGeometry x="520" y="180" width="160" height="120" as="geometry" />
        </mxCell>
        <mxCell id="9XydyOoZIC-MqF_aY8BW-10" value="" style="rounded=0;whiteSpace=wrap;html=1;fillColor=#00FF00;strokeColor=#9673a6;opacity=30;" parent="1" vertex="1">
          <mxGeometry x="600" y="120" width="80" height="60" as="geometry" />
        </mxCell>
        <mxCell id="9XydyOoZIC-MqF_aY8BW-11" value="" style="rounded=0;whiteSpace=wrap;html=1;opacity=30;fillColor=#d80073;strokeColor=#A50040;fontColor=#ffffff;" parent="1" vertex="1">
          <mxGeometry x="200" y="350" width="50" height="42" as="geometry" />
        </mxCell>
        <mxCell id="9XydyOoZIC-MqF_aY8BW-12" value="" style="rounded=0;whiteSpace=wrap;html=1;opacity=30;fillColor=#60a917;fontColor=#ffffff;strokeColor=#2D7600;" parent="1" vertex="1">
          <mxGeometry x="250" y="350" width="55" height="42" as="geometry" />
        </mxCell>
        <mxCell id="9XydyOoZIC-MqF_aY8BW-13" value="" style="rounded=0;whiteSpace=wrap;html=1;opacity=30;fillColor=#1ba1e2;fontColor=#ffffff;strokeColor=#006EAF;" parent="1" vertex="1">
          <mxGeometry x="305" y="350" width="55" height="42" as="geometry" />
        </mxCell>
        <mxCell id="9XydyOoZIC-MqF_aY8BW-14" value="" style="rounded=0;whiteSpace=wrap;html=1;opacity=30;fillColor=#d80073;strokeColor=#A50040;fontColor=#ffffff;" parent="1" vertex="1">
          <mxGeometry x="200" y="320" width="50" height="30" as="geometry" />
        </mxCell>
        <mxCell id="9XydyOoZIC-MqF_aY8BW-15" value="" style="rounded=0;whiteSpace=wrap;html=1;opacity=30;fillColor=#60a917;fontColor=#ffffff;strokeColor=#2D7600;" parent="1" vertex="1">
          <mxGeometry x="250" y="320" width="55" height="30" as="geometry" />
        </mxCell>
        <mxCell id="9XydyOoZIC-MqF_aY8BW-16" value="" style="rounded=0;whiteSpace=wrap;html=1;opacity=30;fillColor=#1ba1e2;fontColor=#ffffff;strokeColor=#006EAF;" parent="1" vertex="1">
          <mxGeometry x="305" y="320" width="55" height="30" as="geometry" />
        </mxCell>
        <mxCell id="9XydyOoZIC-MqF_aY8BW-17" style="edgeStyle=orthogonalEdgeStyle;rounded=0;orthogonalLoop=1;jettySize=auto;html=1;exitX=0.5;exitY=1;exitDx=0;exitDy=0;" parent="1" source="9XydyOoZIC-MqF_aY8BW-14" target="9XydyOoZIC-MqF_aY8BW-14" edge="1">
          <mxGeometry relative="1" as="geometry" />
        </mxCell>
        <mxCell id="9XydyOoZIC-MqF_aY8BW-19" value="" style="endArrow=none;html=1;rounded=0;strokeWidth=3;strokeColor=#999999;" parent="1" edge="1">
          <mxGeometry width="50" height="50" relative="1" as="geometry">
            <mxPoint x="599.5699999999999" y="180" as="sourcePoint" />
            <mxPoint x="599.5699999999999" y="120" as="targetPoint" />
          </mxGeometry>
        </mxCell>
      </root>
    </mxGraphModel>
  </diagram>
  <diagram name="ams2_dash_green" id="Xx8NQc6lOvMGjoBDroiM">
    <mxGraphModel dx="378" dy="265" grid="1" gridSize="10" guides="1" tooltips="1" connect="1" arrows="1" fold="1" page="1" pageScale="1" pageWidth="827" pageHeight="1169" background="#000000" math="0" shadow="0">
      <root>
        <mxCell id="ECUFCA36pmo_n8E7rnEa-0" />
        <mxCell id="ECUFCA36pmo_n8E7rnEa-1" parent="ECUFCA36pmo_n8E7rnEa-0" />
        <mxCell id="ECUFCA36pmo_n8E7rnEa-2" value="" style="rounded=0;whiteSpace=wrap;html=1;fillColor=#000000;" vertex="1" parent="ECUFCA36pmo_n8E7rnEa-1">
          <mxGeometry x="200" y="120" width="480" height="272" as="geometry" />
        </mxCell>
        <mxCell id="ECUFCA36pmo_n8E7rnEa-3" value="" style="endArrow=none;html=1;rounded=0;strokeColor=#999999;strokeWidth=3;" edge="1" parent="ECUFCA36pmo_n8E7rnEa-1">
          <mxGeometry width="50" height="50" relative="1" as="geometry">
            <mxPoint x="200" y="180" as="sourcePoint" />
            <mxPoint x="680" y="180" as="targetPoint" />
          </mxGeometry>
        </mxCell>
        <mxCell id="ECUFCA36pmo_n8E7rnEa-4" value="" style="endArrow=none;html=1;rounded=0;strokeColor=#999999;strokeWidth=3;exitX=0.25;exitY=1;exitDx=0;exitDy=0;entryX=0.25;entryY=0;entryDx=0;entryDy=0;" edge="1" parent="ECUFCA36pmo_n8E7rnEa-1">
          <mxGeometry width="50" height="50" relative="1" as="geometry">
            <mxPoint x="359.9999999999999" y="392" as="sourcePoint" />
            <mxPoint x="359.9999999999999" y="120" as="targetPoint" />
          </mxGeometry>
        </mxCell>
        <mxCell id="ECUFCA36pmo_n8E7rnEa-5" value="" style="endArrow=none;html=1;rounded=0;strokeColor=#999999;strokeWidth=3;exitX=0.25;exitY=1;exitDx=0;exitDy=0;" edge="1" parent="ECUFCA36pmo_n8E7rnEa-1">
          <mxGeometry width="50" height="50" relative="1" as="geometry">
            <mxPoint x="520" y="392" as="sourcePoint" />
            <mxPoint x="520" y="180" as="targetPoint" />
          </mxGeometry>
        </mxCell>
        <mxCell id="ECUFCA36pmo_n8E7rnEa-6" value="" style="endArrow=none;html=1;rounded=0;strokeWidth=3;strokeColor=#999999;exitX=0;exitY=0.5;exitDx=0;exitDy=0;" edge="1" parent="ECUFCA36pmo_n8E7rnEa-1">
          <mxGeometry width="50" height="50" relative="1" as="geometry">
            <mxPoint x="199.9999999999999" y="320" as="sourcePoint" />
            <mxPoint x="360" y="320" as="targetPoint" />
          </mxGeometry>
        </mxCell>
        <mxCell id="ECUFCA36pmo_n8E7rnEa-7" value="" style="endArrow=none;html=1;rounded=0;strokeWidth=3;strokeColor=#999999;exitX=0;exitY=0.5;exitDx=0;exitDy=0;" edge="1" parent="ECUFCA36pmo_n8E7rnEa-1">
          <mxGeometry width="50" height="50" relative="1" as="geometry">
            <mxPoint x="200" y="350" as="sourcePoint" />
            <mxPoint x="360.0000000000001" y="350" as="targetPoint" />
          </mxGeometry>
        </mxCell>
        <mxCell id="ECUFCA36pmo_n8E7rnEa-8" value="" style="endArrow=none;html=1;rounded=0;strokeWidth=3;strokeColor=#999999;" edge="1" parent="ECUFCA36pmo_n8E7rnEa-1">
          <mxGeometry width="50" height="50" relative="1" as="geometry">
            <mxPoint x="250" y="392" as="sourcePoint" />
            <mxPoint x="250" y="320" as="targetPoint" />
          </mxGeometry>
        </mxCell>
        <mxCell id="ECUFCA36pmo_n8E7rnEa-9" value="" style="endArrow=none;html=1;rounded=0;strokeWidth=3;strokeColor=#999999;" edge="1" parent="ECUFCA36pmo_n8E7rnEa-1">
          <mxGeometry width="50" height="50" relative="1" as="geometry">
            <mxPoint x="305" y="392" as="sourcePoint" />
            <mxPoint x="305" y="320" as="targetPoint" />
          </mxGeometry>
        </mxCell>
        <mxCell id="ECUFCA36pmo_n8E7rnEa-10" value="" style="endArrow=none;html=1;rounded=0;strokeWidth=3;strokeColor=#999999;exitX=0;exitY=0.5;exitDx=0;exitDy=0;" edge="1" parent="ECUFCA36pmo_n8E7rnEa-1">
          <mxGeometry width="50" height="50" relative="1" as="geometry">
            <mxPoint x="520" y="300" as="sourcePoint" />
            <mxPoint x="680.0000000000001" y="300" as="targetPoint" />
          </mxGeometry>
        </mxCell>
        <mxCell id="ECUFCA36pmo_n8E7rnEa-11" value="" style="endArrow=none;html=1;rounded=0;strokeWidth=3;strokeColor=#999999;" edge="1" parent="ECUFCA36pmo_n8E7rnEa-1">
          <mxGeometry width="50" height="50" relative="1" as="geometry">
            <mxPoint x="280" y="180" as="sourcePoint" />
            <mxPoint x="280" y="120" as="targetPoint" />
          </mxGeometry>
        </mxCell>
        <mxCell id="ECUFCA36pmo_n8E7rnEa-12" value="" style="endArrow=none;html=1;rounded=0;strokeWidth=3;strokeColor=#999999;" edge="1" parent="ECUFCA36pmo_n8E7rnEa-1">
          <mxGeometry width="50" height="50" relative="1" as="geometry">
            <mxPoint x="520" y="180" as="sourcePoint" />
            <mxPoint x="520" y="120" as="targetPoint" />
          </mxGeometry>
        </mxCell>
        <mxCell id="ECUFCA36pmo_n8E7rnEa-13" value="" style="rounded=0;whiteSpace=wrap;html=1;fillColor=#FF8000;strokeColor=#d79b00;opacity=30;" vertex="1" parent="ECUFCA36pmo_n8E7rnEa-1">
          <mxGeometry x="280" y="120" width="80" height="60" as="geometry" />
        </mxCell>
        <mxCell id="ECUFCA36pmo_n8E7rnEa-14" value="" style="rounded=0;whiteSpace=wrap;html=1;fillColor=#FF0000;strokeColor=#b85450;opacity=30;" vertex="1" parent="ECUFCA36pmo_n8E7rnEa-1">
          <mxGeometry x="200" y="120" width="80" height="60" as="geometry" />
        </mxCell>
        <mxCell id="ECUFCA36pmo_n8E7rnEa-15" value="" style="rounded=0;whiteSpace=wrap;html=1;fillColor=#B3B3B3;strokeColor=#666666;opacity=30;fontColor=#333333;" vertex="1" parent="ECUFCA36pmo_n8E7rnEa-1">
          <mxGeometry x="360" y="120" width="160" height="60" as="geometry" />
        </mxCell>
        <mxCell id="ECUFCA36pmo_n8E7rnEa-16" value="" style="rounded=0;whiteSpace=wrap;html=1;fillColor=#7F00FF;strokeColor=#9673a6;opacity=30;" vertex="1" parent="ECUFCA36pmo_n8E7rnEa-1">
          <mxGeometry x="520" y="300" width="160" height="92" as="geometry" />
        </mxCell>
        <mxCell id="ECUFCA36pmo_n8E7rnEa-17" value="" style="rounded=0;whiteSpace=wrap;html=1;fillColor=#FFFF00;strokeColor=#9673a6;opacity=30;" vertex="1" parent="ECUFCA36pmo_n8E7rnEa-1">
          <mxGeometry x="520" y="180" width="160" height="120" as="geometry" />
        </mxCell>
        <mxCell id="ECUFCA36pmo_n8E7rnEa-18" value="" style="rounded=0;whiteSpace=wrap;html=1;fillColor=#00FF00;strokeColor=#9673a6;opacity=30;" vertex="1" parent="ECUFCA36pmo_n8E7rnEa-1">
          <mxGeometry x="600" y="120" width="80" height="60" as="geometry" />
        </mxCell>
        <mxCell id="ECUFCA36pmo_n8E7rnEa-19" value="" style="rounded=0;whiteSpace=wrap;html=1;opacity=30;fillColor=#d80073;strokeColor=#A50040;fontColor=#ffffff;" vertex="1" parent="ECUFCA36pmo_n8E7rnEa-1">
          <mxGeometry x="200" y="350" width="50" height="42" as="geometry" />
        </mxCell>
        <mxCell id="ECUFCA36pmo_n8E7rnEa-20" value="" style="rounded=0;whiteSpace=wrap;html=1;opacity=30;fillColor=#60a917;fontColor=#ffffff;strokeColor=#2D7600;" vertex="1" parent="ECUFCA36pmo_n8E7rnEa-1">
          <mxGeometry x="250" y="350" width="55" height="42" as="geometry" />
        </mxCell>
        <mxCell id="ECUFCA36pmo_n8E7rnEa-21" value="" style="rounded=0;whiteSpace=wrap;html=1;opacity=30;fillColor=#1ba1e2;fontColor=#ffffff;strokeColor=#006EAF;" vertex="1" parent="ECUFCA36pmo_n8E7rnEa-1">
          <mxGeometry x="305" y="350" width="55" height="42" as="geometry" />
        </mxCell>
        <mxCell id="ECUFCA36pmo_n8E7rnEa-22" value="" style="rounded=0;whiteSpace=wrap;html=1;opacity=30;fillColor=#d80073;strokeColor=#A50040;fontColor=#ffffff;" vertex="1" parent="ECUFCA36pmo_n8E7rnEa-1">
          <mxGeometry x="200" y="320" width="50" height="30" as="geometry" />
        </mxCell>
        <mxCell id="ECUFCA36pmo_n8E7rnEa-23" value="" style="rounded=0;whiteSpace=wrap;html=1;opacity=30;fillColor=#60a917;fontColor=#ffffff;strokeColor=#2D7600;" vertex="1" parent="ECUFCA36pmo_n8E7rnEa-1">
          <mxGeometry x="250" y="320" width="55" height="30" as="geometry" />
        </mxCell>
        <mxCell id="ECUFCA36pmo_n8E7rnEa-24" value="" style="rounded=0;whiteSpace=wrap;html=1;opacity=30;fillColor=#1ba1e2;fontColor=#ffffff;strokeColor=#006EAF;" vertex="1" parent="ECUFCA36pmo_n8E7rnEa-1">
          <mxGeometry x="305" y="320" width="55" height="30" as="geometry" />
        </mxCell>
        <mxCell id="ECUFCA36pmo_n8E7rnEa-25" style="edgeStyle=orthogonalEdgeStyle;rounded=0;orthogonalLoop=1;jettySize=auto;html=1;exitX=0.5;exitY=1;exitDx=0;exitDy=0;" edge="1" parent="ECUFCA36pmo_n8E7rnEa-1" source="ECUFCA36pmo_n8E7rnEa-22" target="ECUFCA36pmo_n8E7rnEa-22">
          <mxGeometry relative="1" as="geometry" />
        </mxCell>
        <mxCell id="ECUFCA36pmo_n8E7rnEa-26" value="" style="endArrow=none;html=1;rounded=0;strokeWidth=3;strokeColor=#999999;" edge="1" parent="ECUFCA36pmo_n8E7rnEa-1">
          <mxGeometry width="50" height="50" relative="1" as="geometry">
            <mxPoint x="599.5699999999999" y="180" as="sourcePoint" />
            <mxPoint x="599.5699999999999" y="120" as="targetPoint" />
          </mxGeometry>
        </mxCell>
        <mxCell id="wKkI76FuVzhSefjKBJ5D-1" value="" style="rounded=0;whiteSpace=wrap;html=1;fillColor=#60a917;strokeColor=#2D7600;fontColor=#ffffff;" vertex="1" parent="ECUFCA36pmo_n8E7rnEa-1">
          <mxGeometry x="520" y="120" width="80" height="60" as="geometry" />
        </mxCell>
      </root>
    </mxGraphModel>
  </diagram>
  <diagram name="ams2_dash_white" id="SFAxqN-ZPQXjqqMYYGQM">
    <mxGraphModel dx="946" dy="662" grid="1" gridSize="10" guides="1" tooltips="1" connect="1" arrows="1" fold="1" page="1" pageScale="1" pageWidth="827" pageHeight="1169" background="#000000" math="0" shadow="0">
      <root>
        <mxCell id="5GLiwEM3vQArCzhj5UTD-0" />
        <mxCell id="5GLiwEM3vQArCzhj5UTD-1" parent="5GLiwEM3vQArCzhj5UTD-0" />
        <mxCell id="5GLiwEM3vQArCzhj5UTD-2" value="" style="rounded=0;whiteSpace=wrap;html=1;fillColor=#000000;" vertex="1" parent="5GLiwEM3vQArCzhj5UTD-1">
          <mxGeometry x="200" y="120" width="480" height="272" as="geometry" />
        </mxCell>
        <mxCell id="5GLiwEM3vQArCzhj5UTD-3" value="" style="endArrow=none;html=1;rounded=0;strokeColor=#999999;strokeWidth=3;" edge="1" parent="5GLiwEM3vQArCzhj5UTD-1">
          <mxGeometry width="50" height="50" relative="1" as="geometry">
            <mxPoint x="200" y="180" as="sourcePoint" />
            <mxPoint x="680" y="180" as="targetPoint" />
          </mxGeometry>
        </mxCell>
        <mxCell id="5GLiwEM3vQArCzhj5UTD-4" value="" style="endArrow=none;html=1;rounded=0;strokeColor=#999999;strokeWidth=3;exitX=0.25;exitY=1;exitDx=0;exitDy=0;entryX=0.25;entryY=0;entryDx=0;entryDy=0;" edge="1" parent="5GLiwEM3vQArCzhj5UTD-1">
          <mxGeometry width="50" height="50" relative="1" as="geometry">
            <mxPoint x="359.9999999999999" y="392" as="sourcePoint" />
            <mxPoint x="359.9999999999999" y="120" as="targetPoint" />
          </mxGeometry>
        </mxCell>
        <mxCell id="5GLiwEM3vQArCzhj5UTD-5" value="" style="endArrow=none;html=1;rounded=0;strokeColor=#999999;strokeWidth=3;exitX=0.25;exitY=1;exitDx=0;exitDy=0;" edge="1" parent="5GLiwEM3vQArCzhj5UTD-1">
          <mxGeometry width="50" height="50" relative="1" as="geometry">
            <mxPoint x="520" y="392" as="sourcePoint" />
            <mxPoint x="520" y="180" as="targetPoint" />
          </mxGeometry>
        </mxCell>
        <mxCell id="5GLiwEM3vQArCzhj5UTD-6" value="" style="endArrow=none;html=1;rounded=0;strokeWidth=3;strokeColor=#999999;exitX=0;exitY=0.5;exitDx=0;exitDy=0;" edge="1" parent="5GLiwEM3vQArCzhj5UTD-1">
          <mxGeometry width="50" height="50" relative="1" as="geometry">
            <mxPoint x="199.9999999999999" y="320" as="sourcePoint" />
            <mxPoint x="360" y="320" as="targetPoint" />
          </mxGeometry>
        </mxCell>
        <mxCell id="5GLiwEM3vQArCzhj5UTD-7" value="" style="endArrow=none;html=1;rounded=0;strokeWidth=3;strokeColor=#999999;exitX=0;exitY=0.5;exitDx=0;exitDy=0;" edge="1" parent="5GLiwEM3vQArCzhj5UTD-1">
          <mxGeometry width="50" height="50" relative="1" as="geometry">
            <mxPoint x="200" y="350" as="sourcePoint" />
            <mxPoint x="360.0000000000001" y="350" as="targetPoint" />
          </mxGeometry>
        </mxCell>
        <mxCell id="5GLiwEM3vQArCzhj5UTD-8" value="" style="endArrow=none;html=1;rounded=0;strokeWidth=3;strokeColor=#999999;" edge="1" parent="5GLiwEM3vQArCzhj5UTD-1">
          <mxGeometry width="50" height="50" relative="1" as="geometry">
            <mxPoint x="250" y="392" as="sourcePoint" />
            <mxPoint x="250" y="320" as="targetPoint" />
          </mxGeometry>
        </mxCell>
        <mxCell id="5GLiwEM3vQArCzhj5UTD-9" value="" style="endArrow=none;html=1;rounded=0;strokeWidth=3;strokeColor=#999999;" edge="1" parent="5GLiwEM3vQArCzhj5UTD-1">
          <mxGeometry width="50" height="50" relative="1" as="geometry">
            <mxPoint x="305" y="392" as="sourcePoint" />
            <mxPoint x="305" y="320" as="targetPoint" />
          </mxGeometry>
        </mxCell>
        <mxCell id="5GLiwEM3vQArCzhj5UTD-10" value="" style="endArrow=none;html=1;rounded=0;strokeWidth=3;strokeColor=#999999;exitX=0;exitY=0.5;exitDx=0;exitDy=0;" edge="1" parent="5GLiwEM3vQArCzhj5UTD-1">
          <mxGeometry width="50" height="50" relative="1" as="geometry">
            <mxPoint x="520" y="300" as="sourcePoint" />
            <mxPoint x="680.0000000000001" y="300" as="targetPoint" />
          </mxGeometry>
        </mxCell>
        <mxCell id="5GLiwEM3vQArCzhj5UTD-11" value="" style="endArrow=none;html=1;rounded=0;strokeWidth=3;strokeColor=#999999;" edge="1" parent="5GLiwEM3vQArCzhj5UTD-1">
          <mxGeometry width="50" height="50" relative="1" as="geometry">
            <mxPoint x="280" y="180" as="sourcePoint" />
            <mxPoint x="280" y="120" as="targetPoint" />
          </mxGeometry>
        </mxCell>
        <mxCell id="5GLiwEM3vQArCzhj5UTD-12" value="" style="endArrow=none;html=1;rounded=0;strokeWidth=3;strokeColor=#999999;" edge="1" parent="5GLiwEM3vQArCzhj5UTD-1">
          <mxGeometry width="50" height="50" relative="1" as="geometry">
            <mxPoint x="520" y="180" as="sourcePoint" />
            <mxPoint x="520" y="120" as="targetPoint" />
          </mxGeometry>
        </mxCell>
        <mxCell id="5GLiwEM3vQArCzhj5UTD-13" value="" style="rounded=0;whiteSpace=wrap;html=1;fillColor=#FF8000;strokeColor=#d79b00;opacity=30;" vertex="1" parent="5GLiwEM3vQArCzhj5UTD-1">
          <mxGeometry x="280" y="120" width="80" height="60" as="geometry" />
        </mxCell>
        <mxCell id="5GLiwEM3vQArCzhj5UTD-14" value="" style="rounded=0;whiteSpace=wrap;html=1;fillColor=#FF0000;strokeColor=#b85450;opacity=30;" vertex="1" parent="5GLiwEM3vQArCzhj5UTD-1">
          <mxGeometry x="200" y="120" width="80" height="60" as="geometry" />
        </mxCell>
        <mxCell id="5GLiwEM3vQArCzhj5UTD-15" value="" style="rounded=0;whiteSpace=wrap;html=1;fillColor=#B3B3B3;strokeColor=#666666;opacity=30;fontColor=#333333;" vertex="1" parent="5GLiwEM3vQArCzhj5UTD-1">
          <mxGeometry x="360" y="120" width="160" height="60" as="geometry" />
        </mxCell>
        <mxCell id="5GLiwEM3vQArCzhj5UTD-16" value="" style="rounded=0;whiteSpace=wrap;html=1;fillColor=#7F00FF;strokeColor=#9673a6;opacity=30;" vertex="1" parent="5GLiwEM3vQArCzhj5UTD-1">
          <mxGeometry x="520" y="300" width="160" height="92" as="geometry" />
        </mxCell>
        <mxCell id="5GLiwEM3vQArCzhj5UTD-17" value="" style="rounded=0;whiteSpace=wrap;html=1;fillColor=#FFFF00;strokeColor=#9673a6;opacity=30;" vertex="1" parent="5GLiwEM3vQArCzhj5UTD-1">
          <mxGeometry x="520" y="180" width="160" height="120" as="geometry" />
        </mxCell>
        <mxCell id="5GLiwEM3vQArCzhj5UTD-18" value="" style="rounded=0;whiteSpace=wrap;html=1;fillColor=#00FF00;strokeColor=#9673a6;opacity=30;" vertex="1" parent="5GLiwEM3vQArCzhj5UTD-1">
          <mxGeometry x="600" y="120" width="80" height="60" as="geometry" />
        </mxCell>
        <mxCell id="5GLiwEM3vQArCzhj5UTD-19" value="" style="rounded=0;whiteSpace=wrap;html=1;opacity=30;fillColor=#d80073;strokeColor=#A50040;fontColor=#ffffff;" vertex="1" parent="5GLiwEM3vQArCzhj5UTD-1">
          <mxGeometry x="200" y="350" width="50" height="42" as="geometry" />
        </mxCell>
        <mxCell id="5GLiwEM3vQArCzhj5UTD-20" value="" style="rounded=0;whiteSpace=wrap;html=1;opacity=30;fillColor=#60a917;fontColor=#ffffff;strokeColor=#2D7600;" vertex="1" parent="5GLiwEM3vQArCzhj5UTD-1">
          <mxGeometry x="250" y="350" width="55" height="42" as="geometry" />
        </mxCell>
        <mxCell id="5GLiwEM3vQArCzhj5UTD-21" value="" style="rounded=0;whiteSpace=wrap;html=1;opacity=30;fillColor=#1ba1e2;fontColor=#ffffff;strokeColor=#006EAF;" vertex="1" parent="5GLiwEM3vQArCzhj5UTD-1">
          <mxGeometry x="305" y="350" width="55" height="42" as="geometry" />
        </mxCell>
        <mxCell id="5GLiwEM3vQArCzhj5UTD-22" value="" style="rounded=0;whiteSpace=wrap;html=1;opacity=30;fillColor=#d80073;strokeColor=#A50040;fontColor=#ffffff;" vertex="1" parent="5GLiwEM3vQArCzhj5UTD-1">
          <mxGeometry x="200" y="320" width="50" height="30" as="geometry" />
        </mxCell>
        <mxCell id="5GLiwEM3vQArCzhj5UTD-23" value="" style="rounded=0;whiteSpace=wrap;html=1;opacity=30;fillColor=#60a917;fontColor=#ffffff;strokeColor=#2D7600;" vertex="1" parent="5GLiwEM3vQArCzhj5UTD-1">
          <mxGeometry x="250" y="320" width="55" height="30" as="geometry" />
        </mxCell>
        <mxCell id="5GLiwEM3vQArCzhj5UTD-24" value="" style="rounded=0;whiteSpace=wrap;html=1;opacity=30;fillColor=#1ba1e2;fontColor=#ffffff;strokeColor=#006EAF;" vertex="1" parent="5GLiwEM3vQArCzhj5UTD-1">
          <mxGeometry x="305" y="320" width="55" height="30" as="geometry" />
        </mxCell>
        <mxCell id="5GLiwEM3vQArCzhj5UTD-25" style="edgeStyle=orthogonalEdgeStyle;rounded=0;orthogonalLoop=1;jettySize=auto;html=1;exitX=0.5;exitY=1;exitDx=0;exitDy=0;" edge="1" parent="5GLiwEM3vQArCzhj5UTD-1" source="5GLiwEM3vQArCzhj5UTD-22" target="5GLiwEM3vQArCzhj5UTD-22">
          <mxGeometry relative="1" as="geometry" />
        </mxCell>
        <mxCell id="5GLiwEM3vQArCzhj5UTD-26" value="" style="endArrow=none;html=1;rounded=0;strokeWidth=3;strokeColor=#999999;" edge="1" parent="5GLiwEM3vQArCzhj5UTD-1">
          <mxGeometry width="50" height="50" relative="1" as="geometry">
            <mxPoint x="599.5699999999999" y="180" as="sourcePoint" />
            <mxPoint x="599.5699999999999" y="120" as="targetPoint" />
          </mxGeometry>
        </mxCell>
        <mxCell id="oWwkRPC-RfUGoJX_zyf1-0" value="" style="rounded=0;whiteSpace=wrap;html=1;" vertex="1" parent="5GLiwEM3vQArCzhj5UTD-1">
          <mxGeometry x="520" y="120" width="80" height="60" as="geometry" />
        </mxCell>
      </root>
    </mxGraphModel>
  </diagram>
  <diagram name="ams2_dash_blue" id="5WiZu6TH9GLRy-J21yqH">
    <mxGraphModel dx="450" dy="315" grid="1" gridSize="10" guides="1" tooltips="1" connect="1" arrows="1" fold="1" page="1" pageScale="1" pageWidth="827" pageHeight="1169" background="#000000" math="0" shadow="0">
      <root>
        <mxCell id="7zFng3BsJPWJnNKQYOoA-0" />
        <mxCell id="7zFng3BsJPWJnNKQYOoA-1" parent="7zFng3BsJPWJnNKQYOoA-0" />
        <mxCell id="7zFng3BsJPWJnNKQYOoA-2" value="" style="rounded=0;whiteSpace=wrap;html=1;fillColor=#000000;" vertex="1" parent="7zFng3BsJPWJnNKQYOoA-1">
          <mxGeometry x="200" y="120" width="480" height="272" as="geometry" />
        </mxCell>
        <mxCell id="7zFng3BsJPWJnNKQYOoA-3" value="" style="endArrow=none;html=1;rounded=0;strokeColor=#999999;strokeWidth=3;" edge="1" parent="7zFng3BsJPWJnNKQYOoA-1">
          <mxGeometry width="50" height="50" relative="1" as="geometry">
            <mxPoint x="200" y="180" as="sourcePoint" />
            <mxPoint x="680" y="180" as="targetPoint" />
          </mxGeometry>
        </mxCell>
        <mxCell id="7zFng3BsJPWJnNKQYOoA-4" value="" style="endArrow=none;html=1;rounded=0;strokeColor=#999999;strokeWidth=3;exitX=0.25;exitY=1;exitDx=0;exitDy=0;entryX=0.25;entryY=0;entryDx=0;entryDy=0;" edge="1" parent="7zFng3BsJPWJnNKQYOoA-1">
          <mxGeometry width="50" height="50" relative="1" as="geometry">
            <mxPoint x="359.9999999999999" y="392" as="sourcePoint" />
            <mxPoint x="359.9999999999999" y="120" as="targetPoint" />
          </mxGeometry>
        </mxCell>
        <mxCell id="7zFng3BsJPWJnNKQYOoA-5" value="" style="endArrow=none;html=1;rounded=0;strokeColor=#999999;strokeWidth=3;exitX=0.25;exitY=1;exitDx=0;exitDy=0;" edge="1" parent="7zFng3BsJPWJnNKQYOoA-1">
          <mxGeometry width="50" height="50" relative="1" as="geometry">
            <mxPoint x="520" y="392" as="sourcePoint" />
            <mxPoint x="520" y="180" as="targetPoint" />
          </mxGeometry>
        </mxCell>
        <mxCell id="7zFng3BsJPWJnNKQYOoA-6" value="" style="endArrow=none;html=1;rounded=0;strokeWidth=3;strokeColor=#999999;exitX=0;exitY=0.5;exitDx=0;exitDy=0;" edge="1" parent="7zFng3BsJPWJnNKQYOoA-1">
          <mxGeometry width="50" height="50" relative="1" as="geometry">
            <mxPoint x="199.9999999999999" y="320" as="sourcePoint" />
            <mxPoint x="360" y="320" as="targetPoint" />
          </mxGeometry>
        </mxCell>
        <mxCell id="7zFng3BsJPWJnNKQYOoA-7" value="" style="endArrow=none;html=1;rounded=0;strokeWidth=3;strokeColor=#999999;exitX=0;exitY=0.5;exitDx=0;exitDy=0;" edge="1" parent="7zFng3BsJPWJnNKQYOoA-1">
          <mxGeometry width="50" height="50" relative="1" as="geometry">
            <mxPoint x="200" y="350" as="sourcePoint" />
            <mxPoint x="360.0000000000001" y="350" as="targetPoint" />
          </mxGeometry>
        </mxCell>
        <mxCell id="7zFng3BsJPWJnNKQYOoA-8" value="" style="endArrow=none;html=1;rounded=0;strokeWidth=3;strokeColor=#999999;" edge="1" parent="7zFng3BsJPWJnNKQYOoA-1">
          <mxGeometry width="50" height="50" relative="1" as="geometry">
            <mxPoint x="250" y="392" as="sourcePoint" />
            <mxPoint x="250" y="320" as="targetPoint" />
          </mxGeometry>
        </mxCell>
        <mxCell id="7zFng3BsJPWJnNKQYOoA-9" value="" style="endArrow=none;html=1;rounded=0;strokeWidth=3;strokeColor=#999999;" edge="1" parent="7zFng3BsJPWJnNKQYOoA-1">
          <mxGeometry width="50" height="50" relative="1" as="geometry">
            <mxPoint x="305" y="392" as="sourcePoint" />
            <mxPoint x="305" y="320" as="targetPoint" />
          </mxGeometry>
        </mxCell>
        <mxCell id="7zFng3BsJPWJnNKQYOoA-10" value="" style="endArrow=none;html=1;rounded=0;strokeWidth=3;strokeColor=#999999;exitX=0;exitY=0.5;exitDx=0;exitDy=0;" edge="1" parent="7zFng3BsJPWJnNKQYOoA-1">
          <mxGeometry width="50" height="50" relative="1" as="geometry">
            <mxPoint x="520" y="300" as="sourcePoint" />
            <mxPoint x="680.0000000000001" y="300" as="targetPoint" />
          </mxGeometry>
        </mxCell>
        <mxCell id="7zFng3BsJPWJnNKQYOoA-11" value="" style="endArrow=none;html=1;rounded=0;strokeWidth=3;strokeColor=#999999;" edge="1" parent="7zFng3BsJPWJnNKQYOoA-1">
          <mxGeometry width="50" height="50" relative="1" as="geometry">
            <mxPoint x="280" y="180" as="sourcePoint" />
            <mxPoint x="280" y="120" as="targetPoint" />
          </mxGeometry>
        </mxCell>
        <mxCell id="7zFng3BsJPWJnNKQYOoA-12" value="" style="endArrow=none;html=1;rounded=0;strokeWidth=3;strokeColor=#999999;" edge="1" parent="7zFng3BsJPWJnNKQYOoA-1">
          <mxGeometry width="50" height="50" relative="1" as="geometry">
            <mxPoint x="520" y="180" as="sourcePoint" />
            <mxPoint x="520" y="120" as="targetPoint" />
          </mxGeometry>
        </mxCell>
        <mxCell id="7zFng3BsJPWJnNKQYOoA-13" value="" style="rounded=0;whiteSpace=wrap;html=1;fillColor=#FF8000;strokeColor=#d79b00;opacity=30;" vertex="1" parent="7zFng3BsJPWJnNKQYOoA-1">
          <mxGeometry x="280" y="120" width="80" height="60" as="geometry" />
        </mxCell>
        <mxCell id="7zFng3BsJPWJnNKQYOoA-14" value="" style="rounded=0;whiteSpace=wrap;html=1;fillColor=#FF0000;strokeColor=#b85450;opacity=30;" vertex="1" parent="7zFng3BsJPWJnNKQYOoA-1">
          <mxGeometry x="200" y="120" width="80" height="60" as="geometry" />
        </mxCell>
        <mxCell id="7zFng3BsJPWJnNKQYOoA-15" value="" style="rounded=0;whiteSpace=wrap;html=1;fillColor=#B3B3B3;strokeColor=#666666;opacity=30;fontColor=#333333;" vertex="1" parent="7zFng3BsJPWJnNKQYOoA-1">
          <mxGeometry x="360" y="120" width="160" height="60" as="geometry" />
        </mxCell>
        <mxCell id="7zFng3BsJPWJnNKQYOoA-16" value="" style="rounded=0;whiteSpace=wrap;html=1;fillColor=#7F00FF;strokeColor=#9673a6;opacity=30;" vertex="1" parent="7zFng3BsJPWJnNKQYOoA-1">
          <mxGeometry x="520" y="300" width="160" height="92" as="geometry" />
        </mxCell>
        <mxCell id="7zFng3BsJPWJnNKQYOoA-17" value="" style="rounded=0;whiteSpace=wrap;html=1;fillColor=#FFFF00;strokeColor=#9673a6;opacity=30;" vertex="1" parent="7zFng3BsJPWJnNKQYOoA-1">
          <mxGeometry x="520" y="180" width="160" height="120" as="geometry" />
        </mxCell>
        <mxCell id="7zFng3BsJPWJnNKQYOoA-18" value="" style="rounded=0;whiteSpace=wrap;html=1;fillColor=#00FF00;strokeColor=#9673a6;opacity=30;" vertex="1" parent="7zFng3BsJPWJnNKQYOoA-1">
          <mxGeometry x="600" y="120" width="80" height="60" as="geometry" />
        </mxCell>
        <mxCell id="7zFng3BsJPWJnNKQYOoA-19" value="" style="rounded=0;whiteSpace=wrap;html=1;opacity=30;fillColor=#d80073;strokeColor=#A50040;fontColor=#ffffff;" vertex="1" parent="7zFng3BsJPWJnNKQYOoA-1">
          <mxGeometry x="200" y="350" width="50" height="42" as="geometry" />
        </mxCell>
        <mxCell id="7zFng3BsJPWJnNKQYOoA-20" value="" style="rounded=0;whiteSpace=wrap;html=1;opacity=30;fillColor=#60a917;fontColor=#ffffff;strokeColor=#2D7600;" vertex="1" parent="7zFng3BsJPWJnNKQYOoA-1">
          <mxGeometry x="250" y="350" width="55" height="42" as="geometry" />
        </mxCell>
        <mxCell id="7zFng3BsJPWJnNKQYOoA-21" value="" style="rounded=0;whiteSpace=wrap;html=1;opacity=30;fillColor=#1ba1e2;fontColor=#ffffff;strokeColor=#006EAF;" vertex="1" parent="7zFng3BsJPWJnNKQYOoA-1">
          <mxGeometry x="305" y="350" width="55" height="42" as="geometry" />
        </mxCell>
        <mxCell id="7zFng3BsJPWJnNKQYOoA-22" value="" style="rounded=0;whiteSpace=wrap;html=1;opacity=30;fillColor=#d80073;strokeColor=#A50040;fontColor=#ffffff;" vertex="1" parent="7zFng3BsJPWJnNKQYOoA-1">
          <mxGeometry x="200" y="320" width="50" height="30" as="geometry" />
        </mxCell>
        <mxCell id="7zFng3BsJPWJnNKQYOoA-23" value="" style="rounded=0;whiteSpace=wrap;html=1;opacity=30;fillColor=#60a917;fontColor=#ffffff;strokeColor=#2D7600;" vertex="1" parent="7zFng3BsJPWJnNKQYOoA-1">
          <mxGeometry x="250" y="320" width="55" height="30" as="geometry" />
        </mxCell>
        <mxCell id="7zFng3BsJPWJnNKQYOoA-24" value="" style="rounded=0;whiteSpace=wrap;html=1;opacity=30;fillColor=#1ba1e2;fontColor=#ffffff;strokeColor=#006EAF;" vertex="1" parent="7zFng3BsJPWJnNKQYOoA-1">
          <mxGeometry x="305" y="320" width="55" height="30" as="geometry" />
        </mxCell>
        <mxCell id="7zFng3BsJPWJnNKQYOoA-25" style="edgeStyle=orthogonalEdgeStyle;rounded=0;orthogonalLoop=1;jettySize=auto;html=1;exitX=0.5;exitY=1;exitDx=0;exitDy=0;" edge="1" parent="7zFng3BsJPWJnNKQYOoA-1" source="7zFng3BsJPWJnNKQYOoA-22" target="7zFng3BsJPWJnNKQYOoA-22">
          <mxGeometry relative="1" as="geometry" />
        </mxCell>
        <mxCell id="7zFng3BsJPWJnNKQYOoA-26" value="" style="endArrow=none;html=1;rounded=0;strokeWidth=3;strokeColor=#999999;" edge="1" parent="7zFng3BsJPWJnNKQYOoA-1">
          <mxGeometry width="50" height="50" relative="1" as="geometry">
            <mxPoint x="599.5699999999999" y="180" as="sourcePoint" />
            <mxPoint x="599.5699999999999" y="120" as="targetPoint" />
          </mxGeometry>
        </mxCell>
        <mxCell id="3Tn6PahucPVCnB2seANu-0" value="" style="rounded=0;whiteSpace=wrap;html=1;fillColor=#0050ef;strokeColor=#001DBC;fontColor=#ffffff;" vertex="1" parent="7zFng3BsJPWJnNKQYOoA-1">
          <mxGeometry x="520" y="120" width="80" height="60" as="geometry" />
        </mxCell>
      </root>
    </mxGraphModel>
  </diagram>
  <diagram name="ams2_dash_checkers" id="QJHHi80BgQjSD6S3WldW">
    <mxGraphModel dx="823" dy="576" grid="1" gridSize="10" guides="1" tooltips="1" connect="1" arrows="1" fold="1" page="1" pageScale="1" pageWidth="827" pageHeight="1169" background="#000000" math="0" shadow="0">
      <root>
        <mxCell id="Xp9iFOaXOIQYrhqozkpy-0" />
        <mxCell id="Xp9iFOaXOIQYrhqozkpy-1" parent="Xp9iFOaXOIQYrhqozkpy-0" />
        <mxCell id="Xp9iFOaXOIQYrhqozkpy-2" value="" style="rounded=0;whiteSpace=wrap;html=1;fillColor=#000000;" vertex="1" parent="Xp9iFOaXOIQYrhqozkpy-1">
          <mxGeometry x="200" y="120" width="480" height="272" as="geometry" />
        </mxCell>
        <mxCell id="Xp9iFOaXOIQYrhqozkpy-3" value="" style="endArrow=none;html=1;rounded=0;strokeColor=#999999;strokeWidth=3;" edge="1" parent="Xp9iFOaXOIQYrhqozkpy-1">
          <mxGeometry width="50" height="50" relative="1" as="geometry">
            <mxPoint x="200" y="180" as="sourcePoint" />
            <mxPoint x="680" y="180" as="targetPoint" />
          </mxGeometry>
        </mxCell>
        <mxCell id="Xp9iFOaXOIQYrhqozkpy-4" value="" style="endArrow=none;html=1;rounded=0;strokeColor=#999999;strokeWidth=3;exitX=0.25;exitY=1;exitDx=0;exitDy=0;entryX=0.25;entryY=0;entryDx=0;entryDy=0;" edge="1" parent="Xp9iFOaXOIQYrhqozkpy-1">
          <mxGeometry width="50" height="50" relative="1" as="geometry">
            <mxPoint x="359.9999999999999" y="392" as="sourcePoint" />
            <mxPoint x="359.9999999999999" y="120" as="targetPoint" />
          </mxGeometry>
        </mxCell>
        <mxCell id="Xp9iFOaXOIQYrhqozkpy-5" value="" style="endArrow=none;html=1;rounded=0;strokeColor=#999999;strokeWidth=3;exitX=0.25;exitY=1;exitDx=0;exitDy=0;" edge="1" parent="Xp9iFOaXOIQYrhqozkpy-1">
          <mxGeometry width="50" height="50" relative="1" as="geometry">
            <mxPoint x="520" y="392" as="sourcePoint" />
            <mxPoint x="520" y="180" as="targetPoint" />
          </mxGeometry>
        </mxCell>
        <mxCell id="Xp9iFOaXOIQYrhqozkpy-6" value="" style="endArrow=none;html=1;rounded=0;strokeWidth=3;strokeColor=#999999;exitX=0;exitY=0.5;exitDx=0;exitDy=0;" edge="1" parent="Xp9iFOaXOIQYrhqozkpy-1">
          <mxGeometry width="50" height="50" relative="1" as="geometry">
            <mxPoint x="199.9999999999999" y="320" as="sourcePoint" />
            <mxPoint x="360" y="320" as="targetPoint" />
          </mxGeometry>
        </mxCell>
        <mxCell id="Xp9iFOaXOIQYrhqozkpy-7" value="" style="endArrow=none;html=1;rounded=0;strokeWidth=3;strokeColor=#999999;exitX=0;exitY=0.5;exitDx=0;exitDy=0;" edge="1" parent="Xp9iFOaXOIQYrhqozkpy-1">
          <mxGeometry width="50" height="50" relative="1" as="geometry">
            <mxPoint x="200" y="350" as="sourcePoint" />
            <mxPoint x="360.0000000000001" y="350" as="targetPoint" />
          </mxGeometry>
        </mxCell>
        <mxCell id="Xp9iFOaXOIQYrhqozkpy-8" value="" style="endArrow=none;html=1;rounded=0;strokeWidth=3;strokeColor=#999999;" edge="1" parent="Xp9iFOaXOIQYrhqozkpy-1">
          <mxGeometry width="50" height="50" relative="1" as="geometry">
            <mxPoint x="250" y="392" as="sourcePoint" />
            <mxPoint x="250" y="320" as="targetPoint" />
          </mxGeometry>
        </mxCell>
        <mxCell id="Xp9iFOaXOIQYrhqozkpy-9" value="" style="endArrow=none;html=1;rounded=0;strokeWidth=3;strokeColor=#999999;" edge="1" parent="Xp9iFOaXOIQYrhqozkpy-1">
          <mxGeometry width="50" height="50" relative="1" as="geometry">
            <mxPoint x="305" y="392" as="sourcePoint" />
            <mxPoint x="305" y="320" as="targetPoint" />
          </mxGeometry>
        </mxCell>
        <mxCell id="Xp9iFOaXOIQYrhqozkpy-10" value="" style="endArrow=none;html=1;rounded=0;strokeWidth=3;strokeColor=#999999;exitX=0;exitY=0.5;exitDx=0;exitDy=0;" edge="1" parent="Xp9iFOaXOIQYrhqozkpy-1">
          <mxGeometry width="50" height="50" relative="1" as="geometry">
            <mxPoint x="520" y="300" as="sourcePoint" />
            <mxPoint x="680.0000000000001" y="300" as="targetPoint" />
          </mxGeometry>
        </mxCell>
        <mxCell id="Xp9iFOaXOIQYrhqozkpy-11" value="" style="endArrow=none;html=1;rounded=0;strokeWidth=3;strokeColor=#999999;" edge="1" parent="Xp9iFOaXOIQYrhqozkpy-1">
          <mxGeometry width="50" height="50" relative="1" as="geometry">
            <mxPoint x="280" y="180" as="sourcePoint" />
            <mxPoint x="280" y="120" as="targetPoint" />
          </mxGeometry>
        </mxCell>
        <mxCell id="Xp9iFOaXOIQYrhqozkpy-12" value="" style="endArrow=none;html=1;rounded=0;strokeWidth=3;strokeColor=#999999;" edge="1" parent="Xp9iFOaXOIQYrhqozkpy-1">
          <mxGeometry width="50" height="50" relative="1" as="geometry">
            <mxPoint x="520" y="180" as="sourcePoint" />
            <mxPoint x="520" y="120" as="targetPoint" />
          </mxGeometry>
        </mxCell>
        <mxCell id="Xp9iFOaXOIQYrhqozkpy-13" value="" style="rounded=0;whiteSpace=wrap;html=1;fillColor=#FF8000;strokeColor=#d79b00;opacity=30;" vertex="1" parent="Xp9iFOaXOIQYrhqozkpy-1">
          <mxGeometry x="280" y="120" width="80" height="60" as="geometry" />
        </mxCell>
        <mxCell id="Xp9iFOaXOIQYrhqozkpy-14" value="" style="rounded=0;whiteSpace=wrap;html=1;fillColor=#FF0000;strokeColor=#b85450;opacity=30;" vertex="1" parent="Xp9iFOaXOIQYrhqozkpy-1">
          <mxGeometry x="200" y="120" width="80" height="60" as="geometry" />
        </mxCell>
        <mxCell id="Xp9iFOaXOIQYrhqozkpy-15" value="" style="rounded=0;whiteSpace=wrap;html=1;fillColor=#B3B3B3;strokeColor=#666666;opacity=30;fontColor=#333333;" vertex="1" parent="Xp9iFOaXOIQYrhqozkpy-1">
          <mxGeometry x="360" y="120" width="160" height="60" as="geometry" />
        </mxCell>
        <mxCell id="Xp9iFOaXOIQYrhqozkpy-16" value="" style="rounded=0;whiteSpace=wrap;html=1;fillColor=#7F00FF;strokeColor=#9673a6;opacity=30;" vertex="1" parent="Xp9iFOaXOIQYrhqozkpy-1">
          <mxGeometry x="520" y="300" width="160" height="92" as="geometry" />
        </mxCell>
        <mxCell id="Xp9iFOaXOIQYrhqozkpy-17" value="" style="rounded=0;whiteSpace=wrap;html=1;fillColor=#FFFF00;strokeColor=#9673a6;opacity=30;" vertex="1" parent="Xp9iFOaXOIQYrhqozkpy-1">
          <mxGeometry x="520" y="180" width="160" height="120" as="geometry" />
        </mxCell>
        <mxCell id="Xp9iFOaXOIQYrhqozkpy-18" value="" style="rounded=0;whiteSpace=wrap;html=1;fillColor=#00FF00;strokeColor=#9673a6;opacity=30;" vertex="1" parent="Xp9iFOaXOIQYrhqozkpy-1">
          <mxGeometry x="600" y="120" width="80" height="60" as="geometry" />
        </mxCell>
        <mxCell id="Xp9iFOaXOIQYrhqozkpy-19" value="" style="rounded=0;whiteSpace=wrap;html=1;opacity=30;fillColor=#d80073;strokeColor=#A50040;fontColor=#ffffff;" vertex="1" parent="Xp9iFOaXOIQYrhqozkpy-1">
          <mxGeometry x="200" y="350" width="50" height="42" as="geometry" />
        </mxCell>
        <mxCell id="Xp9iFOaXOIQYrhqozkpy-20" value="" style="rounded=0;whiteSpace=wrap;html=1;opacity=30;fillColor=#60a917;fontColor=#ffffff;strokeColor=#2D7600;" vertex="1" parent="Xp9iFOaXOIQYrhqozkpy-1">
          <mxGeometry x="250" y="350" width="55" height="42" as="geometry" />
        </mxCell>
        <mxCell id="Xp9iFOaXOIQYrhqozkpy-21" value="" style="rounded=0;whiteSpace=wrap;html=1;opacity=30;fillColor=#1ba1e2;fontColor=#ffffff;strokeColor=#006EAF;" vertex="1" parent="Xp9iFOaXOIQYrhqozkpy-1">
          <mxGeometry x="305" y="350" width="55" height="42" as="geometry" />
        </mxCell>
        <mxCell id="Xp9iFOaXOIQYrhqozkpy-22" value="" style="rounded=0;whiteSpace=wrap;html=1;opacity=30;fillColor=#d80073;strokeColor=#A50040;fontColor=#ffffff;" vertex="1" parent="Xp9iFOaXOIQYrhqozkpy-1">
          <mxGeometry x="200" y="320" width="50" height="30" as="geometry" />
        </mxCell>
        <mxCell id="Xp9iFOaXOIQYrhqozkpy-23" value="" style="rounded=0;whiteSpace=wrap;html=1;opacity=30;fillColor=#60a917;fontColor=#ffffff;strokeColor=#2D7600;" vertex="1" parent="Xp9iFOaXOIQYrhqozkpy-1">
          <mxGeometry x="250" y="320" width="55" height="30" as="geometry" />
        </mxCell>
        <mxCell id="Xp9iFOaXOIQYrhqozkpy-24" value="" style="rounded=0;whiteSpace=wrap;html=1;opacity=30;fillColor=#1ba1e2;fontColor=#ffffff;strokeColor=#006EAF;" vertex="1" parent="Xp9iFOaXOIQYrhqozkpy-1">
          <mxGeometry x="305" y="320" width="55" height="30" as="geometry" />
        </mxCell>
        <mxCell id="Xp9iFOaXOIQYrhqozkpy-25" style="edgeStyle=orthogonalEdgeStyle;rounded=0;orthogonalLoop=1;jettySize=auto;html=1;exitX=0.5;exitY=1;exitDx=0;exitDy=0;" edge="1" parent="Xp9iFOaXOIQYrhqozkpy-1" source="Xp9iFOaXOIQYrhqozkpy-22" target="Xp9iFOaXOIQYrhqozkpy-22">
          <mxGeometry relative="1" as="geometry" />
        </mxCell>
        <mxCell id="Xp9iFOaXOIQYrhqozkpy-26" value="" style="endArrow=none;html=1;rounded=0;strokeWidth=3;strokeColor=#999999;" edge="1" parent="Xp9iFOaXOIQYrhqozkpy-1">
          <mxGeometry width="50" height="50" relative="1" as="geometry">
            <mxPoint x="599.5699999999999" y="180" as="sourcePoint" />
            <mxPoint x="599.5699999999999" y="120" as="targetPoint" />
          </mxGeometry>
        </mxCell>
        <mxCell id="lsk8p5heuIoOgBbRAsya-0" value="" style="shape=image;image=data:image/jpg,/9j/4AAQSkZJRgABAQAAAQABAAD/2wCEAAgICAgJCAkKCgkNDgwODRMREBARExwUFhQWFBwrGx8bGx8bKyYuJSMlLiZENS8vNUROQj5CTl9VVV93cXecnNEBCAgICAkICQoKCQ0ODA4NExEQEBETHBQWFBYUHCsbHxsbHxsrJi4lIyUuJkQ1Ly81RE5CPkJOX1VVX3dxd5yc0f/CABEIA+kF3AMBIgACEQEDEQH/xAAcAAEBAAIDAQEAAAAAAAAAAAAACAQHAQMFBgL/2gAIAQEAAAAA3+AAA8WGwAAHv2+AAA0vNIAACmtyAAAJI1wAAAur1AAAMKEusAAD7mxQAAAAAA8WGwAAHv2+AAA0rNYAACmtyAAAJI1wAAAur1AAAMOEesAAD7mxQAAAAAA8WGwAAHv2+AAA0rNYAACmtyAAAJI1wAAAur1AAAMKEusAAD7mxQAAAAAA8WGwAAHv2+AAA0rNYAACmdygAAJI1wAAAur1AAAMKEusAAD7mxQAAAAAA8WGwAAHv2+AAA0rNYAACmtyAAAJI1wAAAur1AAAMKEusAAD7mxQAAAAAA8WGwAAHv2+AAA0rNYAACmtyAAAJI1wAAAur1AAAMKEusAAD7mxQAAAAAA8WGwAAHv2+AAA0rNYAACmtyAAAJI1wAAAur1AAAMKEusAAD7mxQAAAAAA8WGwAAHv2+AAA0rNYAACmtyAAAJI1wAAAur1AAAMKEusAAD7mxQAAAAAA8WGwAAHv2+AAA0tNQAACmtyAAAJI1wAAAur1AAAMKEusAAD7mxQAAAAAA8WGwAAHv2+AAA0tNQAACmdygAAJI1wAAAur1AAAMKEusAAD7mxQAAAAAA8WGwAAHv2+AAA0rNYAACmdygAAJI1wAAAur1AAAMKEusAAD7mxQAAAAAA8WGwAAHv2+AAA0rNYAACmtyAAAJI1wAAAur1AAAMKEusAAD7mxQAAAAAA8WGwAAHv2+AAA0rNYAACmtyAAAJI1wAAAur1AAAMKEusAAD7mxQAAAAAA8WGwAAHv2+AAA0rNYAACmtyAAAJI1wAAAur1AAAMKEusAAD7mxQAAAAAA8WGwAAHv2+AAA0rNYAACmtyAAAJI1wAAAur1AAAMKEusAAD7mxQAAAAAA8WGwAAHv2+AAA0rNYAACmtyAAAJI1wAAAur1AAAMKEusAAD7mxQAAAAAA8WGwAAHv2+AAA0rNYAACmtyAAAJI1wAAAur1AAAMKEusAAD7mxQAAAAAA8WGwAAHv2+AAA0rNYAACmtyAAAJI1wAAAur1AAAMOEesAAD7mxQAAAAAA8WGwAAHv2+AAA0rNYAACmdygAAJI1wAAAur1AAAMaDusAAD7mxQAAAAAA8WGwAAHv2+AAA0rNYAACmNzAAAJI1wAAAur1AAAMKEusAAD7mxQAADxwAAOzxY94AAA9yvQAP3+Aak0CAAAoTa/5AADs/EyfAAAAfqxPTAH7/ADEjXrAAA+wqkAAAhkAAB6F0dgAAOPj40AAAbbqDkAAHEuanAAAVTtMAADGhnCAAA7rnzwAANdyOAAAAAAGfd3IAAHxsZgAANt1GAAAljVAAACqtqAAAdUJ4QAAHdduWAABr2QwAAAAAA9C7eQAAPjY04AAA23UYAACWNUAAAKq2oAAB0QrhAAAd125YAAGvZDAAAAAAD0Lt5AAA+NjMAABtuowAAEsaoAAAVVtQAADqhPCAAA7buywAANeyGAAAAAAHoXbyAAB8bGYAADbdRgAAJY1QAAAqragAAHVCeEAAB3XblgAAa9kMAAAAAAM+7uQAAPjYzAAAbbqMAABLGqAAAFVbUAAA6oTwgAAO67csAADXshgAAAAABn3dyAAB8fGIAADbdRgAAJY1QAAAqragAAHVCeEAAB3XblgAAa9kMAAAAAAM+7uQAAPj4xAAAbbqMAABLGqAAAFVbUAAA6IVwgAAO27ssAADXshgAAAAABn3dyAAB8fGIAADbdRgAAJY1QAAAqragAAHVCeEAAB3XblgAAa9kMAAAAAAPQu3kAAD4yNAAAG26jAAASxqgAABVW1AAAOiFcIAADuu3LAAA17IYAAAAAAehdvIAAHxsZgAANt1GAAAljVAAACqtqAAAdUJ4QAAHdduWAABr2QwAAAAAA9C7eQAAPjYzAAAbcqIAABLGqAAAFVbUAAA6IVwgAAO67csAADXshgAAAAABn3dyAAB8bGYAADbdRgAAJZ1OAAAqragAAHVCeEAAB23dlgAAa9kMAAAAAAM+7uQAAPj4xAAAbbqMAABLGqAAAFVbUAAA6IVwgAAO67csAADXshgAAAAABn3dyAAB8bGYAADbdRgAAJY1QAAAqragAAHRCuEAAB3XblgAAa9kMAAAAAAM+7uQAAPjYzAAAbbqMAABLGqAAAFVbUAAA6IVwgAAO67csAADXshgAAAAABn3dyAAB8ZGgAADbdRgAAJY1QAAAqragAAHRCuEAAB3XblgAAa9kMAAAAAAM+7uQAAPj4xAAAbcqIAABLGqAAAFVbUAAA6IVwgAAO67csAADXshgAAAAABn3dyAAB8fGIAADbdRgAAJY1QAAAqragAAHRCuEAAB3XblgAAa9kMAAAAAAM+7gAAPz8fGgAADbdQ8gAA4lvU4AACqtpgAAdMK4QAAHddmWAABr2RAAADY4DgAcu3b36Bw5AH48nWQcnAB+j39hfsBw5AfjXnz7kAAcNh/RgB+X6B06i/LlwA4By25kgAAeBrjkBwDkcK4AAAeHDwAAD37d5AAA0rNgAACmdx8gAA4knXIAAC6PVAAAw4S6wAAPuLE5AAAAAAHiw2AAA+gt4AABpaagAAFN7jAAASRrgAABdXqAAAYcI9YAAH3NigAAAAAB4sNgAAPft8AABpWawAAFN7jAAASRrgAABdXqAAAYUJdYAAH3NigAAAAAB4sNgAAPft8AABpWawAAFN7jAAASRrgAABdXqAAAYUJdYAAH3NigAAAAAB4kOAAAPft8AABpaagAAFNbkAAASRrgAABdXqAAAYUJdYAAH3NigAAAAAB4sNgAAPft8AABpaagAAFM7lAAASRrgAABdXqAAAYUJdYAAH3NigAAAAAB4sNgAAPft8AABpWawAAFNbkAAASRrgAABdXqAAAYUJdYAAH3NigAAAAAB4sNgAAPft8AABpWawAAFNbkAAASRrgAABdXqAAAYUJdYAAH3NigAAAAAB4sNgAAPft8AABpWawAAFNbkAAASRrgAABdXqAAAYcI9YAAH3NigAAAAAB4sNgAAPft8AABpWawAAFNbkAAASRrgAABdXqAAAY0HdYAAH3NigAAAAAB4sNgAAPft8AABpWawAAFN7jAAASRrgAABdXqAAAYcI9YAAH3NigAAAAAB4sNgAAPft8AABpWawAAFN7jAAASRrgAABdXqAAAYUJdYAAH3NigAAAAAB4sNgAAPft8AABpWawAAFNbkAAASRrgAABdXqAAAYUJdYAAH3NigAAAAAB4sNgAAPft8AABpWawAAFNbkAAASRrgAABdXqAAAYUJdYAAH3NigAAAAAB4sNgAAPft8AABpWawAAFNbkAAASRrgAABdXqAAAYUJdYAAH3NigAAAAAB4sNgAAPft8AABpWawAAFNbkAAASRrgAABdXqAAAYUJdYAAH3NigAAAAAB4sNgAAPft8AABpWawAAFNbkAAASRrgAABdXqAAAYUJdYAAH3NigAAAAAB4kOAAAPft8AABpWawAAFNbkAAASRrgAABdXqAAAYUJdYAAH3NigAAAAAB4sNgAAPft8AABpWawAAFNbkAAASRrgAABdXqAAAYUJdYAAH3NigAAAAAB4sNgAAPft8AABpWawAAFNbkAAASRrgAABdXqAAAYUJdYAAH3NigAAGnhyHAA/WF8BwAAB27GP0/I5DgcvmfmQAAH1X0QcD9PyAfD+YAAA2Bm/kByDgdWuQAAGd965HAcjgcphAAAZ928gAAfHRmAAA23UQAACWdUAAAKq2oAAB0QrhAAAdt25gAAGvJEAAAAAADPu7kAAD42MwAAG26jAAASxqgAABVW1AAAOqE8IAADuu3LAAA17IYAAAAAAehdvIAAHxsZgAANt1GAAAljVAAACqtqAAAdMKYQAAHbd2WAABr2QwAAAAAAz7u5AAA+PjEAABtuowAAEsaoAAAVVtQAADqhPCAAA7rtywAANeyGAAAAAAGfd3IAAHx8YgAANt1GAAAljVAAACqtqAAAdMKYQAAHdduWAABr2QwAAAAAA9C7eQAAPj4xAAAbbqMAABLGqAAAFVbUAAA6YUwgAAO67csAADXshgAAAAAB6F28gAAfGxmAAA23UYAACWNUAAAKq2oAAB1QnhAAAd125YAAGvZDAAAAAAD0Lt5AAA+NjMAABtuowAAEs6nAAAVVtQAADohXCAAA7buywAANeyGAAAAAAHoXbyAAB8bGYAADbdRgAAJZ1OAAAqragAAHVCeEAAB23dlgAAa9kMAAAAAAM+7uQAAPjYzAAAbbqMAABLGqAAAFVbUAAA6IVwgAAO67csAADXshgAAAAABn3dyAAB8bGYAADbdRgAAJY1QAAAqragAAHRCuEAAB3XblgAAa9kMAAAAAAM+7uQAAPj4xAAAbbqMAABLGqAAAFVbUAAA6IVwgAAO67csAADXshgAAAAABn3dyAAB8fGXAAAG26jAAASxqgAABVW1AAAOqE8IAADtu7LAAA17IYAAAAAAehdvIAAHx8YgAANt1GAAAljVAAACqtqAAAdUJ4QAAHdduWAABr2QwAAAAAA9C7eQAAPj4xAAAbbqMAABLGqAAAFVbUAAA6oTwgAAO67csAADXshgAAAAAB6F28gAAfHxiAAA23UYAACWNUAAAKq2oAAB1QnhAAAd125YAAGvZDAAAAAAD0Lt5AAA+PjEAABtuowAAEsaoAAAVVtQAADphTCAAA7buywAANeyGAAAAAAGfd3IAAHxsZgAANt1GAAAlnU4AACqtqAAAdEK4QAAHdduWAABr2QwAAAAAAz7u5AAA+NjMAABtuowAAEs6nAAAVVtQAADohXCAAA7rtywAANeyGAAAAAAGfd3IAAOPjY0AAAbbqLkAAHEs6oAAAVVtPkAAHRCuEAAB23bmAAAa5kcAAAosfp+X7fgfoflj+AAAAfUgAD8jyvNAAAen6n6/L9AAHHgYwAAH5+jyB+X6fkcjg6/m+QAAO76E/QA/L9PyN5gAAPEhwAAB9BbwAADS01AAAKZ3H+gAAfmStcAAALn9cAADEhDrAAA+5sTkAAAAAAeLDYAAD37fAAAaWmoAABTO5QAAEka4AAAXV6gAAGHCPWAAB9zYoAAAAAAeLDYAAD37fAAAaWmoAABTO5QAAEka4AAAXV6gAAGFCXWAAB9zYoAAAAAAeLDYAAD37fAAAaWmoAABTO5QAAEka4AAAXV6gAAGFCXWAAB9zYoAAAAAAeLDYAAD37fAAAaVmsAABTO5QAAEka4AAAXV6gAAGHCPWAAB9zYoAAAAAAeLDYAAD37fAAAaVmsAABTO5QAAEka4AAAXV6gAAGNB3WAAB9zYoAAAAAAeLDYAAD37fAAAaVmsAABTW5AAAEka4AAAXV6gAAGHCPWAAB9zYoAAAAAAeLDYAAD37fAAAaVmsAABTe4wAAEka4AAAXV6gAAGFCXWAAB9zYoAAAAAAeLDYAAD37fAAAaVmsAABTe4wAAEka4AAAXV6gAAGFCXWAAB9zYoAAAAAAeLDYAAD37fAAAaVmsAABTW5AAAEka4AAAXV6gAAGFCXWAAB9zYoAAAAAAeLDYAAD37fAAAaVmsAABTO5QAAEka4AAAXV6gAAGFCXWAAB9zYoAAAAAAeLDYAAD37fAAAaVmsAABTW5AAAEka4AAAXV6gAAGFCXWAAB9zYoAAAAAAeLDYAAD37fAAAaVmsAABTW5AAAEka4AAAXV6gAAGFCXWAAB9zYoAAAAAAeLDYAAD37fAAAaVmsAABTW5AAAEka4AAAXV6gAAGFCXWAAB9zYoAAAAAAeLDYAAD37fAAAaVmsAABTW5AAAEka4AAAXV6gAAGFCXWAAB9zYoAAAAAAeLDYAAD37fAAAaVmsAABTW5AAAEka4AAAXV6gAAGFCXWAAB9zYoAAAAAAeLDYAAD37fAAAaVmsAABTG5gAAEka4AAAXV6gAAGFCXWAAB9zYoAAAAAAeLDYAAD37fAAAaVmsAABTG5gAAEka4AAAXV6gAAGFCXWAAB9zYoAAAAAAeLDYAAD37fAAAaWmoAABTW5AAAEka4AAAXV6gAAGFCXWAAB9zYoAABxy45HHPDlxyHhw6AAA+gtv9gAcc8OWlZrAAAUzuL9cjjkccgfiS9cAAAc3N64Djlxy45GDCnUAAB9zYX7Djj9OHPByccy0/I/Thy4cuA2EAABxgfGD9PyAD9PS+u5cjgAD4/wA5+QAfofl9V7IAAH5+APyP0PyD9HH33YAAHLyfkuQfkfocORqYAABn3dyAADj46MwAAG26i5AABxLOqAAAFVbT5AAB0wphAAAdt3ZYAAGuZHAAAAAAD0Lt5AAA+PjEAABtuowAAEsaoAAAVVtQAADohXCAAA7rtywAANeyGAAAAAAHoXbyAAB8fGIAADbdRgAAJY1QAAAqragAAHTCmEAAB3XblgAAa9kMAAAAAAPQu3kAAD42MwAAG26jAAASxqgAABVW1AAAOqE8IAADuu3LAAA17IYAAAAAAehdvIAAHxsZgAANt1GAAAljVAAACqtqAAAdUJ4QAAHdduWAABr2QwAAAAAAz7u5AAA+PjEAABtuowAAEsaoAAAVdtAAADohXCAAA7rtywAANeyGAAAAAAGfd3IAAHxsZgAANt1GAAAljVAAACqtqAAAdMKYQAAHdduWAABr2QwAAAAAA9C7eQAAPjYzAAAbbqMAABLGqAAAFVbUAAA6IVwgAAO27ssAADXshgAAAAABn3dyAAB8bGYAADbdRgAAJZ1OAAAqragAAHVCeEAAB3XblgAAa9kMAAAAAAM+7uQAAPjYzAAAbbqMAABLGqAAAFVbUAAA6YUwgAAO67csAADXshgAAAAABn3dyAAB8bGYAADbdRgAAJY1QAAAqragAAHTCmEAAB3XblgAAa9kMAAAAAAPQu3kAAD42MwAAG26jAAASxqgAABVW1AAAOiFcIAADuu3LAAA17IYAAAAAAZ93cgAAfGxpwAABtuowAAEsaoAAAVVtQAADphTCAAA7buywAANeyGAAAAAAGfd3IAAHx8ZcAAAbbqMAABLGqAAAFVbUAAA6YUwgAAO67csAADXshgAAAAABn3dyAAB8fGXAAAG26jAAASxqgAABVW1AAAOmFMIAADuu3LAAA17IYAAAAAAZ93cgAAfHRkAAA23UYAACWNUAAAKq2oAAB1QnhAAAd125YAAGvZDAAAAAADPu7kAAD4+MQAAG26jAAASxqgAABVW1AAAOqE8IAADtuvOAAA17IYAAAAAAehdvIAAHxsZgAANt1GAAAljVAAACqtqAAAdMKYQAAHdduWAABr2QwAAAAAA9C7eQAAPjYzAAAbbqMAABLGqAAAFVbUAAA6YUwgAAO67csAADXshgAAAAABn3dyAAB8bGYAADbdRgAAJY1QAAAqragAAHRCuEAAB3XblgAAa9kMAAAAAAM+7wAAHxsZgAANt1GAAAljVAAACqtqAAAdMKYQAAHdduWAABr2QwAAD/8QAFQEBAQAAAAAAAAAAAAAAAAAAAAH/2gAIAQIQAAAAABKhUUAIWAoAQWCgAhYFAAACFQUAQAKAEFgoAILBQAABABQBALCgCACgAiosUAAAiwWWUAQAUAECxQAQsBQAABLCxZQBAAoAQFigAiwFAAACFgUAIAKAECooAIVBQAABALFAEACgAgWUACWAUAAAILBQAQFlAAgCgAgBQAAAgBQBAAoAIAoAIBZQAAAgVFAEAKAAQCgAiwFAAAAAAAAAEoAAJQAAACWWVCgAiywUAIAoAEAFAEAWAWFABLAWUABFhQAQFllACFiyxZZYKAEAqUAIWBQAQAUAECwWCwoASwBQAiwKAAgWFAAIAAKAECwUAIAoAECwUAIWLKELFAAQsFABAFABAWFACLLALBYoAQAoAJYBQAQFhQAgsWCoFABACgAgCgAQWWFABLACyyyygBAWFACAFABABQAhYAsoSgAhRFABLAUAEBSUAIspFAAQFlAECiKAAIoACFSpQAABAVFAEFSyygBALKACLFRQAABAVFAEBYKAIWBQAIAoAAARZZUUASwFSgBLLBQAIqFlAAAEqAUAQCyygBAsUACAWUAAACBZQBCosKAEAKACAKAAAEAsoAQsKAAIsLKACUgUAAASwBQBCwCgBCwKAAQWUAAAQpBQBLACgBLAKACCxZQAABFlQUAQBYoAQAoAIAUAIpFAAIpKAAhUFAAigAAACACgBCywUAIVBQAQLBQAQqBZYCgAgssUAIsBQARYBQBABYWWLKABCwUAECxQARYBQBAsBUBQAQsWWUAIFJQAQsLFACWWVAsWWUACVCxQAgFlAAQLFACLACxYKACLBZQAgBQASoBQAgFgAKAEAsUAELBQAQCxQBAWFRYVKAEAqUAICpQAQAUAIAUgCgBAFlACFgUAECwUAEWLLKJSUAEAUAAIFABFlJQAEWUAAQqWFAEAVKAEAKACLBZQAABLAFAEAFABACgAlQFAAAEsAUASpYCgBACgAlgFAAACCypQBAsCgCBYUAAgKAAABLAUASwAoAgLCgAQCgAAAQCgAllgKAIsKigAhUFAAACAFABKhZQASwCgBCoKAAAEAFACACgBAVKAEKhZQAABABQBALKABFgsoAIBZQAABCwWUAQFAAIoQoAEAUAILAoAEVFlACUixQAQAUAIBYqLAoAQLBQAllixQAQCxQAgLCwAoAEAUAIqCgAQAUAJYAACgBLBYUAICxQAQAUAIFioAKABAsUAIBQAEsAUAIqLCwAoAIBZQAikWUAEssBQBBYFICygAQBQAgBQAQAUAICxYqVCgBLFhZQAgBQAQLFlAECxUsqWCgBCwsUAJZZYUAEqLBQAJUACwoAEAUAJUsFAAgLFAAhUAAoAILBQAgsFABKgsUAEBU//xAAWAQEBAQAAAAAAAAAAAAAAAAAAAQL/2gAIAQMQAAAAAC0AZAFoBIANACQAaAEgAAC0AZAFoBIANACQAaAEgAAC0AZAFoBIALQCQAaAEgAAC0AZAFoBIANACQAaAEgAAC0AZAFoBIANACQAaAEgAAC0AZAFoBIANACQAaAEgAAC0AZAFoBIANACQAaAEgAAC0AZAFoBIANACQAaAEgAAC0AZAFoBIANACQAaAEgAAC0AZAFoAyANACQAaAEgAoAAAAAAAAAAAAAAAoAkAGgBIAWgDIAtAGQBaAAAkAGgBIAWgDIAtAGQBaAAAkAGgBIAWgDIAtAGQBaAAAkAGgBIAWgDIAtAGQBaAAAkAGgBIAWgDIAtAGQBaAAAkAGgBIAWgDIAtAGQBaAAAkAGgBIAWgDIAtAGQBaAAAkAGgBIAWgDIAtAGQBaAAAkAGgBIAWgDIAtAGQBaAAAkALQBIAWgDIAtAGQBaAMgC0AZAFoBIANACQAaAEgAAC0AZAFoBIANACQAaAEgAAC0AZAFoBIANACQAaAEgAAC0AZAFoBIANACQAaAEgAAC0AZAFoBIANACQAaAEgAAC0AZAFoBIANACQAaAEgAAC0AZAFoBIANACQAaAEgAAC0AZAFoBIANACQAaAEgAAC0AZAFoBIANACQAaAEgAAC0AZAFoBIANACQAaAEgAoAAAAAAAAAAAAAAAoAkAGgBIAWgDIAtAGQBaAAAkAGgBIAWgDIAtAGQBaAAAkAGgBIAWgDIAtAGQBaAAAkAGgBIAWgDIAtAGQBaAAAkAGgBIAWgDIAtAGQBaAAAkAGgBIAWgDIAtAGQBaAAAkAGgBIAWgDIAtAGQBaAAAkAGgBIAWgDIAtAGQBaAAAkAGgBIAWgDIAtAGQBaACWVFgAAFQAFgAABRFgALAsrIAtAGQBaASADQAkAGgBIAAAtAGQBaASADQAkAGgBIAAAtAGQBaASADQAkAGgBIAAAtAGQBaASADQAkAGgBIAAAtAGQBaASADQAkAGgBIAAAtAGQBaASADQAkAGgBIAAAtAGQBaASADQAkAGgBIAAAtAGQBaASADQAkAGgBIAAAtAGQBaAMgDQAkAGgBIAAAtAGQBaASADQAkAGgBIALQCQAtAIhZZZaAJACqBEAFFAACQAaAEgBaAMgC0AZAFoAACQAaAEgBaAMgC0AZAFoAACQAaAEgBaAMgC0AZAFoAACQAaAEgBaAMgC0AZAFoAACQAtAEgBaAMgC0AZAFoAACQAaAEgBaAMgC0AZAFoAACQAaAEgBaAMgC0AZAFoAACQAaAEgBaAMgC0AZAFoAACQAaAEgBaAMgC0AZAFoAACQAaAEgBaAMgC0AZAFoA//8QAQRAAAAIGBgcIAgECBgIDAQAAAAMBAgQFQHQGBxc2VZMREjVUcrGyFTNQUVNhc5I0okEiUhATITGh0RQwICMkkf/aAAgBAQABPwCEpJsB7SpnKFoteNzThfOFru2I55peFqYu68J2FrVvk2/EVCuPYbnkSOmEeOzXhLGcgb3hnEmEq6vg5/l8KpJsB7SpnKFoteNzThfOFrt2I6ZtfphamLuvGdhP5Fat8m34ioVx7Dc8iR0wjx2Y3yxnIG94ZxJhKur4Of5fCqSbAe0qZyhaLXjc04Xzha7diOmbX6YWpi7rwnYWtW+Tb8RUK49hueRI6YR47NeEsZyBveGcSYSrq+Dn+XwqkmwHtKmcoWi143NOF84Wu3Yjpm1+mFqXu+8JyFrVvk2/EVCuPYbnkSOmEeOzXhLGcgb3hnEmEq6vg5/l8KpJsB7SpnKFoteNzThfOFrt2I6ZtfphamLuvGdhE/wK1b5NvxlQrj2G55EjphHjs14SxnIG94ZxJhKur4Of5fCqSbAe0qZyhaLXjc04Xzha7diOmbX6YWpi7rxnYRP8CtW+Tb8ZUK49hueRI6YR47NeEsZyBveGcSYSrq+Dn+XwqkmwHtKmcoWi143NOF84Wu3Yjpm1+mFqYu68J2FrVvk2/GVCuPYbnkSOmEeOzXhLGcgb3hnEmEq6vg5/l8KpJsB7SpnKFoteNzThfOFrt2I6ZtfphamLuvCdha1b5NvxlQrj2G55EjphHjs14SxnIG94ZxJhKur4Of5fCqSbAe0qZyhaLXjc04Xzha7diOmbX6YWpi7rxnYWtW+Tb8RUK49hueRI6YR47NeEsZyBveGcSYSrq+Dn+XwqkmwHtKmcoWi143NOF84Wu3Yjpm1+mFqXu+8JyET/AAK1b5NvxFQrj2G55EjphHjs14SxnIG94ZxJhKur4Of5fCqSbAe0qZyhaLXjc04Xzha7diOmbX6YWpe77wnIWtW+Tb8RUK49hueRI6YR47NeEsZyBveGcSYSrq+Dn+XwqkmwHtKmcoWi143NOF84Wu3Yjpm1+mFqYu68J2ET/ArVvk2/EVCuPYbnkSOmEeOzXhLGcgb3hnEmEq6vg5/l8KpJsB7SpnKFoteNzThfOFrt2I6ZtfphamLuvCdha1b5NvxlQrj2G55EjphHjs14SxnIG94ZxJhKur4Of5fCqR7Ae0qZyhaLXjc04Xzha7diOmbX6YWpi7rwnYRP8CtW+Tb8ZUK49hueRI6YR47NeEsZyBveGcSYSrq+Dn+XwqkmwHtKmcoWi143NOF84Wu3Yjpm1+mFqYu68J2ET/ArVvk2/EVCuPYbnkSOmEeOzXhLGcgb3hnEmEq6vg5/l8KpJsB7SpnKFoteNzThfOFrt2I6ZtfphamLuvGdha1b5NvxFQrj2G55EjphHjs14SxnIG94ZxJhKur4Of5fCqR7Ae0qZyhaLXjc04Xzha7diOmbX6YWpi7rxnYWtW+Tb8RUK49hueRI6YR47NeEsZyBveGcSYSrq+Dn+XwqkmwHtKmcoWi143NOF84Wu3Yjpm1+mFqYu68J2FrVvk2/EVCuPYbnkSOmEeOzG+WM5A3vDOJMJV1fBz/L4VSTYD2lTOULRa8bmnC+cLXbsR0za/TC1MbAb5yFrVvk2/EVCuPYbnkSOmEbtnN8ob0g3vF+JMJV1fBz/L4VSTYD2lTOULRa8bmnC+cLXbsR0za/TC1M7Ab5yE/kVq3ybfiKhXHsNzyJHTCPHZrwljOQN7wziTCVdXwc/wAsN2+5MTZc1A7fcmJsuagdvuTE2XNQO33JibLmoHb7kxNlzUDt9yYmy5qB2+5MTZc1A7fcmJsuagdvuTE2XNQO33JibLmoHb7kxNlzUDt9yYmy5qB2+5MTZc1A7fcmJsuagdvuTE2XNQO33JibLmoHb7kxNlzUDt9yYmy5qB2+5MTZc1AQ/nDi7L90B/Pl0HuV5FFPFmXMXZl0KqoXRpSlKB2a8dyaMtYdnPDcj8tYdnPDcj8tYdnPDcj8tYdnPDcj8tYdnPDcj8tYdnPDcj8tYdnPDcj8tYdnPDcj8tYdnPDcj8tYdnPDcj8tYdnPDcj8tYdnPDcj8tYdnPDcj8tYdnPDcj8tYdnPDcj8tYdnPDcj8tYdnPDcj8tYdnPDcj8tYdmvDcj8tYUcY2oh/Os05mNLLUai1l111EoQqjT/ACEP5yYoyZqB2+5MTZc1A7fcmJsuagdvuTE2XNQO33JibLmoHb7kxNlzUDt9yYmy5qB2+5MTZc1A7fcmJsuagdvuTE2XNQO33JibLmoHb7kxNlzUDt9yYmy5qAh/OHF2X7oHb7kxNlzUDt9yYmy5qB2+5MTZc1A7fcmJsuagdvuTE2XNQO33JibLmoFbbUzPJ1u0phOUaV1WhZKVSU6/SOznhuR+WsOznhuR+WsOznhuR+WsOznhuR+WsOznhuR+WsOznhuR+WsOznhuR+WsOznhuR+WsOznhuR+WsOznhuR+WsOznhuR+WsOznhuR+WsOznhuR+WsOznhuR+WsOznhuR+WsOznhuR+WsOznhuR+WsOznhuR+WsOznhuR+WsOznhuR+WsKqGpldzlbSW08tnMWatKFDU6nUFX84v5ezJmIHb7kxNlzUDt9yYmy5qB2+5MTZc1A7fcmJsuagdvuTE2XNQO33JibLmoHb7kxNlzUDt9yYmy5qB2+5MTZc1A7fcmJsuagdvuTE2XNQO33JibLmoHb7kxNlzUDt9yYmy5qB2+5MTZc1A7fcmJsuagdvuTE2XNQEP5w4uy/dA7fciUoQl6MuYgVjqLt1K2tpZFFjyUll6DCkJXVHZzw3I/LWHZzw3I/LWHZzw3I/LWHZzw3I/LWHZzw3I/LWHZzw3I/LWHZzw3I/LWHZzw3I/LWHZzw3I/LWHZzw3I/LWHZzw3I/LWHZzw3I/LWHZzw3I/LWHZzw3I/LWHZzw3I/LWHZzw3I/LWHZzw3I/LWHZzw3I/LWHZzw3I/LWHZjxTp0MTRlrByvpzqOh1lmvJmLXUYyVVkJXRpQlCg7fcmJsuagdvuTE2XNQO33JibLmoHb7kxNlzUDt9yYmy5qB2+5MTZc1A7fcmJsuagdvuTE2XNQO33JibLmoHb7kxNlzUBD+cOLsv3QO33JibLmoHb7kxNlzUDt9yYmy5qB2+5MTZc1A7fcmJsuagdvuTE2XNQO33JibLmoHb7kxNlzUBvfjlWYGxVDzZkrLM5iNCDEJTpSgLu54JMX0MTQnSlKe7WHZzw3I/LWHZzw3I/LWHZzw3I/LWHZzw3I/LWHZzw3I/LWHZzw3I/LWHZzw3I/LWHZzw3I/LWHZzw3I/LWHZzw3I/LWHZzw3I/LWHZzw3I/LWHZzw3I/LWHZzw3I/LWHZzw3I/LWHZzw3I/LWHZzw3I/LWHZzw3I/LWHZzw3I/LWFBCD2OlLraGkpcklQxOkwxVKqqAh/OXFGXNQO33JibLmoHb7kxNlzUDt9yYmy5qB2+5MTZc1A7fcmJsuagdvuTE2XNQO33JibLmoHb7kxNlzUDt9yYmy5qB2+5MTZc1A7fcmJsuagdvuTE2XNQO33JibLmoHb7kxNlzUDt9yYmy5qB2+5MTZc1A7fcmJsuagdvuTE2XNQO33JibLmoHb7kxNlzUQrq2mwTJXUNVbW0jR7DR7DR7DR7DR7DR7DR7DR7DR7DR7DR7DR7DR7DR7DR7DR7DR7DR7BZCNVP9Ipyrooi/Nbd4Wpy8x8qsNCBo9ho9ho9ho9ho9ho9ho9ho9ho9ho9ho9ho9ho9ho9ho9ho9ho9ho9hoR5CuG9RUiVC1Q3RUmzRoR5DR7DR7DR7DR7DR7DR7DR7DR7DR7DR7DR7DR7DR7DR7DR7DR7DR7DQj+0LIWQWZp0J0Krf6pRoT/ALcg8doNswZ1QhPfFaf71eYY1f8A8bKlX0C0/wAJTo0BCEaEf6DR7DR7DR7DR7DR7DR7DR7DR7DR7DR7DR7DR7DR7DR7DR7DR7DR7DQjyQK0bmPPjJ6/CnVtNgmSuoeUJTy6L7l4Wpy8x0stC1xXrKkSoWp+6KJs2EP7tfhW5B5bRbZgzqhCe+K41eYYfw2OWK6UQlaty3pxkdfhTr2mwTJXUgeUJT26T7lx/wBQlTl5jpZaFrivWVIlQtT90UTZsId3S/CsHltFtmDOqEJ74rjV5hh/DY5YrpRCVq3LenGR1+FOvabBMldSB5QlPbpPuXhanLzHSy0LXFesqRKhan7oomzYQ/u1+FbkHltFtmDOqEJ70rjV5hh/DY5YrpRCVq3LenGR1+FOvabBMldSB5QlPbpPuXhanLzHSy0LXFesqRKhan7oomzYQ/u1+FbkHltFtmDOqEJ70rjV5hi/DY5crpRCVq3LenGR1+FOrabBMldQ8oSnl0X3LwtTl5jpZaFrivWVIlQtT90UTZsIf3a/CtyDy2i2zBnVCE98Vxq8ww/hscsV0ohK1blvTjI6/CnVtNgmSuofwiEp5dB+fAiFqcvMdLLQtcV6ypEqFqfuiibNhD+7X4VuQeW0W2YM6oQnviuNXmGH8NjliulEJWrct6cZHX4U6tpsEyV1DyhKeXQfnwIhanLzHSy0LXFesqRKhan7oomzYQ7ul+FYPLaLbMGdUIT3pXGrzDD+GxyxXSiErVuW9OMjr8KdW02CZK6h5QlPLoPz4EQtTl5jpZaFrivWVIlQtT90UTZsIf3a/CtyDy2i2zBnVCE98Vxq8ww/hsksV0ohK1blvTjI6/CnXtNgmSupA8oSnl0n3LwtTl5jpZaFrivWVIlQtT90UTZsId3S/CsHltFtmDOqEJ74rjV5hh/DY5YrpRCVq3LenGR1+FOvabBMldSB5QlPbpPuXhanLzHSy0LXFesqRKhan7oomzYQ/u1+FbkHltFtmDOqEJ74rjV5hh/DZJYrpRCVq3LenGR1+FOvabBMldSB5QlPbpPuXhanLzHSyYWuK9ZUiVC1P3RRNmwh3dL8KweW0W2YM6oQnviuNXmGH8NjliulEJWrct6cZHX4U6tpsEyV1DyhKe3SfcvC1OXmOlloWuO9ZciXC1P3RRNmwh/dr8K3IPHaDbMGdUIT3pXGrzDD+GxyxXSiErVuW9OMjr8KdW02CZK6h5QlPLoPz4EQtTl5jpZaFrivWVIlQtT90UTZsId3a/CnkHltFtmDOqEJ74rjV5hh/DY5YrpRCVq3LenGR1+FOrabBMldQ8oSnl0X3LwtTl5jpZaFrivWVIlQtT90UTZsId3S/CsHltFtmDOqEJ74rjV5hh/DY5YrpRCVq3LenGR1+FOrabBMldQ/hEJT26T7l4Wpy8x0stC1xXrKkSoWp+6KJs2EO7tfhTyDy2i2zBnVCE96Vxq8ww/hscsV0ohK1blvTjI6/CnVtNgmSuofwiEp5dJ9y8LU5eY6WWha4r1lSJULU/dFE2bCHd2vwp5B5bRbZgzqhCe+K41eYYfw2OWK6UQlaty3pxkdfhTq2mwTJXUPKEp5dB+fAiFqcvMdLJha4r1lSJULU/dFE2bCHd0vwrB5bRbZgzqhCe+K41eYYfw2OWK6UQlaty3pxkdfhTq2mwTJXUP4RCU8ug/PgRC1OXmOlloWuK9ZUiVC1P3RRNmwh3dL8KweW0W2YM6oQnviuNXmGH8NjliulEJWrct6cZHX4U6tpsEyV1DSj/QayBrIGsgayBrIGsgayBrIGsgayBrIGsgayBrIGsgayBrIGsgaUCnl0n3LwtTd5jpVYaUDWQNZA1kDWQNZA1kDWQNZA1kDWQNZA1kDWQNZA1kDWQNZA1kf4VxXrKkSoWp+6KJs0ayBrIGsgayBrIGsgayBrIGsgayBrIGsgayBrIGsgayBrIGsgayAclCSzOFYPHaDbMGdUIT3xXGrzDFoQxsksV0oGsgayBrIGsgayBrIGsgayBrIGsgayBrIGsgayBrIGsgayBrIGsgVqXKefGR1w1lVNcOUzVBZVTXDlM1QWVU1w5TNUFlVNcOUzVBZXTTD1M5QWV00w9TOUFlVNcOUzVBZVTXDlM1QWV00w9TOUFldNMPUzlBZXTTD1M5QWV00w9TOUFldNMPUzlBZXTTD1M5QWV00w9TOUFldNMPUzlBZXTTD1M5QWV00w9TOUFlVNcOUzVBZVTXDlM1QE1c0sd55Lc0sSipDOYg0xKDVE6FVBa3RH1Gr6C16iHm0/QWvUQ82nLFr1EPNp+gteoh5tOWLXqIebT9Ba9RDzafoLXaJf3tGWLXaJf3tGWLXqIebT9Ba9RDzacsWvUQ82nLFr1EPNpyxa9RDzacsWvUQ82n6C16iHm0/QWvUQ82n6C16iHm0/QWvUQ82n6C1yiX97Tlh9U/cL/dbW53ek9Zra1UEk66mhCVlkiyummHqZygsrpph6mcoLKqa4cpmqCyummHqZygsrpph6mcoLKKb4YpmqCymm2GqZqgsqprhymaoLK6aYepnKCyummHqZygsrpph6mcoLK6aYepnKCyummHqZygsrpph6mcoLK6aYepnKCyummHqZygsrpph6mcoLKKb4YpmqCymm2GqZqgsqprhymaoKNMDbV+8+0qQkJJIOLSUWlRKDOkWu0S/vacsWvUQ82n6C16iHm0/QWvUQ82n6C16iHm05Yteoh5tP0Fr1EPNp+gteoh5tP0Fr1EPNpyxa7RL+9oyxa7RL+9oyxa9RDzacsWv0Q82rLFr1EPNpyxa9RDzacsWvUQ82n6C16iHm05Yteoh5tP0Fr1EPNpyxa7RL+9pyxSV1N9Pnn2o4CEmspZKhKyTFkKJ11RZVTTcC85QWV00w9TOUFlVNcOUzVBZVTXDlM1QWV00w9TOUFldNMPUzlBZVTXDlM1QWVU1w5TNUFlVNcOUzVBZVTXDlM1QWVU1w5TNUFlVNcOUzVBZVTXDlM1QWVU1w5TNUFlVNcOUzVBZVTXDlM1QWVU1w5TNUFlVNcOUzVBZXTTD1M5QWV003AvNUFF6TO6gzuS5X4qaW3KGrGJUU0LoQquLXqIebTli16iHm05Yteoh5tOWLXqIebTli1+iHm1ZYteoh5tOWLXqIebTli16iHm05Yteoh5tP0Fr1EPNp+gteoh5tOWLXaJf3tGWLXqJf3tGWLXqIebTli16iHm0/QWvUQ82n6C16iHm0/QWvUQ82n6C16iHm05YtXojqLo12rLBlXFLG4xdsZmFRJJ6yTS0pNURpUXFlVNcOUzVBZVTXDlM1QWUU3wxTNUFlFN8MUzVBZTTbDVM1QWVU1w5TNUFlVNcOUzVBZVTXDlM1QWVU1w5TNUFlVNcOUzVBZVTXDlM1QWVU1w5TNUFldNMPUzlBZXTTD1M5QWV00w9TOUFldNMPUzlBZXTTD1M5QWV00w9TOUFlVNcOUzVBZlTEj/712BRChf9ayUGqf7KgitaiZRJRS67TpULUQnQp5IFr1EPNp+gteoh5tP0Fr9EPNqyxa9RDzafoLXqIebT9Ba9RDzacsWvUQ82n6C16iHm0/QWvUQ82n6C16iHm0/QWvUQ82nLFr1EPNpyxa9RDzacsWvUQ82nLFr1EPNp+gteoh5tP0Fr9EPNqyxa9RDzacsWvUQ82nLFIqYuml7qPcbo/wA5dtallEFKLo0I0qp0iyummHqZygsqprhymaoLKqa4cpmqCyqmuHKZqgsqprhymaoLK6aYepnKCyummHqZygsqprhymaoLKqa4cpmqCyummHqZygsrpph6mcoLK6aYepnKCyummHqZygsrpph6mcoLK6aYepnKCyqmuHKZqgsqprhymaoLKqa4cpmqCyqmuHKZqgsrpph6mcoLK6aYepnKDV9hq+w1fYavsNX2Gr7DV9hq+w1fYavsNX2Gr7DV9hq+w1fYavsNX2Gr7DV9hq+wpIhXsB7SpnIaUwlFbxuacL5hCFdA1fYavsNX2Gr7DV9hq+w1fYavsNX2Gr7DV9hq+w1fYavsNX2Gr7DV9hq+w1fYV2bFdM2v0/8Ao0/+2pi7zxnAhCv+o1fYavsNX2Gr7DV9hq+w1fYavsNX2Gr7DV9hq+w1fYavsNX2Gr7DV9hq+w0K6f8AYVq3ybfiKGlP+On/AB0/+jSNP/w0hxIR2G6JEjpQNX2Gr7DV9hq+w1fYavsNX2Gr7DV9hq+w1fYavsNX2Gr7DV9hq+w1fYavsNX2DwU0u9vToR+Kb0g3vDOJMJV1fB0fIEIVGr7DV9hq+w1fYavsNX2Gr7DV9hq+w1fYavsNX2Gr7DV9hq+w1fYavsNX2Gr7DV9oWkmwHtKmcoWit43NOF84Wu3Yjpm1+mFqYu68J2ET/ArVvk2/EVCuPYbnkSOmEeOzG+WM5A3vDOJMJV1fBz/L4VSTYD2lTOULRa8bmnC+cLXbsR0za/TC1MXdeE7C1q3ybfiKhXHsNzyJHTCPHZrwljOQN7wziTCVdXwc/wAvhVJNgPaVM5QtFrxuacL5wtduxHTNr9MLUxd14TsJ/IrVvk2/EVCuPYbnkSOmEeOzXhLGcgb3hnEmEq6vg5/l8KpHsF6yhnKFoteNzThfOFrt2I6ZtfphamLuvGdha1b5NvxFQrj2G55EjphHjs14SxnIG94ZxJhKur4Of5fCqSbAe0qZyhaLXjc04Xzha7diOmbX6YWpe77wnIWtW+Tb8RUK49hueRI6YR47NeEsZyBveGcSYSrq+Dn+XwqkmwHtKmcoWi143NOF84Wu3Yjpm1+mFqYu68J2FrVvk2/GVCuPYbnkSOmEeOzXhLGcgb3hnEmEq6vg5/l8KpJsB7SpnKFoteNzThfOFrt2I6ZtfphamLuvGdha1b5NvxlQrj2G55EjphHjs14SxnIG94ZxJhKur4Of5fCqSbAe0qZyhaLXjc04Xzha7diOmbX6YWpi7rxnYWtW+Tb8ZUK49hueRI6YR47Mb5YzkDe8M4kwlXV8HP8AL4VSTYD2lTOULRa8bmnC+cLXbsR0za/TC1MXdeE7CfyK1b5NvxlQrj2G55EjphG7ZzfKG9IN7wziTCVdXwc/y+FUk2A9pUzlC0WvG5pwvnC127EdM2v0wtTF3XhOwtat8m34ioVx7Dc8iR0wjx2Y3yxnIG94ZxJhKur4Of5fCqSbAe0qZyhaLXjc04Xzha7diOmbX6YWpi7rwnYWtW+Tb8RUK49hueRI6YR47NeEsZyBveGcSYSrq+Dn+XwqkmwHtKmcoWi143NOF84Wu3Yjpm1+mFqYu68Z2FrVvk2/GVCuPYbnkSOmEeOzXhLGcgb3hnEmEq6vg5/l8KpJsB7SpnKFoteNzThfOFrt2I6ZtfphamLuvGdha1b5NvxlQrj2G55EjphHjs14SxnIG94ZxJhKur4Of5fCqSbAe0qZyhaLXjc04Xzha7diOmbX6YWpi7rwnYWtW+Tb8ZUK49hueRI6YR47NeEsZyBveGcSYSrq+Dn+XwqkmwHtKmcoWi143NOF84Wu3Yjpm1+mFqYu68Z2FrVvk2/GVCuPYbnkSOmEeOzXhLGcgb3hnEmEq6vg5/l8KpJsB7SpnKFoteNzThfOFrt2I6ZtfphamLuvCdha1b5NvxFQrj2G55EjphHjs14SxnIG94ZxJhKur4Of5fCqR7Ae0qZyhaLXjc04Xzha7diOmbX6YWpi7rwnYWtW+Tb8RUK49hueRI6YR47NeEsZyBveGcSYSrq+Dn+XwqkmwHtKmcoWi143NOF84Wu3Yjpm1+mFqYu68Z2FrVvk2/EVCuPYbnkSOmEeOzXhLGcgb3hnEmEq6vg5/l8KpJsB7SpnKFoteNzThfOFrt2I6ZtfphamLuvGdhP5Fat8m34ioVx7Dc8iR0wjx2a8JYzkDe8M4kwlXV8HP8sNbRRvcmsW0Ub3JrFtFG9yaxbRRvcmsW00d3RrFtFG9yaxbRRvcmsW0Ub3JrFtNHd0axbRRvcmsW0Ub3JrFtFG9yaxbRRvcmsW0Ub3JrFtFG9yaxbRRvcmsW0Ub3JrFtFG9yaxbRRvcmsW00d3RrDdWs4noyHu8lkakGtKiSVE+64shpd/YzZosipf6bNmoFkVL/TZs1Asipf6bNmoFkVL/TZs1Asipf6bNmoFkVL/AE2bNQLIaX+mzZosipf6bNmoFkVL/TZs1Asipf6bNmoFkVL/AE2bNQLIqX+mzZqBZFS/02bNQLIaX+mzZosipf6bNmoFkVL/AE2bNQLIqX+mzZqBZFS/02bNQLIqX+mzZqARV+/6OnkPpuUJ/wDFYjFDjdQzStoVSLaKO7m1i2ije5NYtoo3uTWLaaO7o1i2mju6NYtoo3uTWLaKN7k1i2ije5NYtoo3uTWLaaO7o1i2ije5NYtoo3uTWLaKN7k1i2mju6NYtoo3uTWLaKN7k1i2ije5NYtoo3uTWLaaO7o1i2ije5NYpC+VKyFGV2uUhdQ8hdJyf85KFRZFS/02bNQLIqX+mzZqBZFS/wBNmzUCyKl/ps2agWRUv9NmzUCyKl/ps2agWRUv9NmzUCyKl/ps2agWRUv9NmzUCyKl/ps2agWRUv8ATZs1Asipf6bNmoFkVL/TZs1Asipf6bNmoFkVL/TZs1Asipf6bNmoFkVL/TZs1Asipf6bNmoFkVL/AE2bNQLIaXemzZocD8Jq5IPdD5Z11mg1dB6P8lKFldQW0Ub3JrFtNHd0axbRRvcmsW0Ub3JrFtNHd0axbRRvcmsW0Ub3JrFtFG9yaxbRRvcmsW00d3RrFtNHd0axbRRvcmsW0Ub3JrFtFG9yaxbRRvcmsW0Ub3JrFtFG9yaxbRRvcmsW0Ub3JrFtFG9yaw96OPSnrec/nOUohlM0F6Dl0KraxYsipf6bNmoFkVL/AE2bNQLIqX+mzZqBZDS/02bNFkNL/TZs0WRUv9NmzUCyKl/ps2agWQ0v9NmzRZDS/wBNmzRZFS/02bNQLIqX+mzZqBZFS/02bNQLIqX+mzZqBZFS/wBNmzUCyKl/ps2agWRUv9NmzUCyGl/ps2aLIaX+mzZoshpf6bNmiyKlyEJSlRmzQx1ruR3MjMwmsrSkxmKUJWT7lI0C2mju6NYtoo3uTWLaKN7k1i2ije5NYtoo3uTWLaKN7k1i2ije5NYtoo3uTWLaKN7k1i2mju6NYtoo3uTWLaaO7o1i2ije5NYtoo3uTWLaaO7o1i2ije5NYtoo3uTWLaKN7k1i2ije5NYaK4XA0MxxCjG1a5pSS/uEVUUrPQg1RRn1V/6u8FkVL/TZs1Asipf6bNmoFkVL/TZs1Asipf6bNmoFkVL/AE2bNQLIqX+mzZqBZFS/02bNQLIqX+mzZqBZFS/02bNQLIqX+mzZqBZFS/02bNQLIaX+mzZoshpf6bNmiyKl/ps2agWRUv8ATZs1Asipf6bNmoFkVL/TZs1Ashpf6bNmiyKl/ps2agO6iL6oW2s7/epRaWRlX0roKXQst/ULZ6N7m1i2ije5NYtpo7ujWLaKN7k1i2ije5NYtpo7ujWLaKN7k1i2ije5NYtoo3uTWLaKN7k1i2ije5NYtpo7ujWLaKN7k1i2mju6NYtpo7ujWLaKN7k1i2ije5NYtoo3uTWLaKN7k1i2mju6NYtoo3uTXCuvabBMldQ0f7DQNA0DQNA0DQNA0DQNA0DQNA0DQNA0DQKeXSfUvC1OXmOlVv8ADQNA0DQNA0DQNA0DQNA0DQNA0DQNA0f4VxXrKkSoWqC6KJs0aBoGgaBoGgaP8NA0DQNA0DQNA0DQNH+B3dL8KeQeW0W2YM6oQnvSuNXmGFH/AONjlyulA0DQNA0DQNA0DQNA0DQNH+GgaBoGgaBoFaty3pxkdfhTq2mwTJXUPKEp7dJ9y8LU5eY6WWha4r1lSJULU/dFE2bCH92vwrcg8totswZ1QhPfFcavMMP4jJLFdKIStW5b04yOvwp17TYJkrqQP4RCU9uk+5eFqcvMdLLQtcV6ypEqFqfuiibNhD+7M4VuQeW0W2YM6oQnvSuNXmGH8NjliulEJWrct6cZHX4U6tpsEyV1DyhKeXQfnwIhanLzHSy0LXFesqRKhan7oomzYQ/u1+FbkHltFtmDOqEJ74rjV5hh/DY5YrpRCVq3LenGR1+FOrabBMldQ/hEJTy6D8+BELU5eY6WWha4r1lSJULU/dFE2bCH92Zwrcg8totswZ1QhPfFcavMMP4bHLFdKIStW5b04yOvwp17TYJkrqQPKEp5dB+fAiFqcvMdLLQtcV6ypEqFqfuiibNhD+7M4VuQeW0W2YM6oQnviuNXmGH8NjliulEJWrct6cZHX4U69psEyV1IHlCU9uk+5eFqcvMdLLQtcV6ypEqFqfuiibNhD+7X4VuQeW0W2YM6oQnviuNXmGH8NjliulEJWrct6cZHX4U69psEyV1IHlCU9uk+5eFqcvMdLLQtcd6y5EuFqfuiibNhDu6X4Vg8totswZ1QhPelcavMMP4bHLFdKIStW5b04yOvwp17TYJkrqQP4RCU9uk+5eFqcvMdLLQtcV6ypEqFqfuiibNhD+7X4VuQeW0W2YM6oQnvSuNXmGH8NjliulEJWrct6cZHX4U6tpsEyV1D+EQlPbpPuXhanLzHSy0LXFesqRKhan7oomzYQ7ul+FYPLaLbMGdUIT3xXGrzDD+GxyxXSiErVuW9OMjr8KdW02CZK6h/CISnt0n3LwtTl5jpZaFrivWVIlQtT90UTZsId3S/CsHltFtmDOqEJ74rjV5hi/DY5crpRCVq3LenGR1+FOrabBMldQ/hEJTy6D8+BELU5eY6WWha4r1lSJULU/dFE2bCHd0vwrB47QbZgzqhCe+K41eYYfxGSWK6UQlaty3pxkdfhTr2kwTJXUPKEp5dB+fAgf8AUJU5eY6WWha4r1lSJULU/dFE2bCH92vwrcg8totswZ1QhPelcavMMP4jJLFdKIStW5b04yOvwp17TYJkrqQPKEp5dB+fAiFqcvMdLLQtcV6ypEqFqfuiibNhD+7X4VuQeW0W2YM6oQnviuNXmGH8NjliulEJWrct6cZHX4U69psEyV1IHlCU8ug/PgRC1OXmOlloWuK9ZUiVC1P3RRNmwh/dr8K3IPLaLbMGdUIT3xXGrzDD+GxyxXSiErVuW9OMjr8Kde02CZK6kD+EQlPLoPz4EQtTl5jpZaFrivWVIlQtT90UTZsIf3a/CtyDy2i2zBnVCE98Vxq8ww/hscsV0ohK1blvTjI6/CnXtNgmSupA8oSnl0H58CIWpy8x0stC1xXrKkSoWp+6KJs2EP7szhW5B5bRbZgzqhCe9K41eYYfxGSWK6UQlaty3pxkdfhTr2kwTJXUP4RCU9uk+5eFqcvMdLLQtcd6y5EuFqfuiibNhDu6X4Vg8doNswZ1QhPelcavMMP4bHLFdKIStW5b04yOvwp1bTYJkrqH8IhKe3SfcvC1OXmOlloWuK9ZUiVC1P3RRNmwh3dL8KweW0W2YM6oQnviuNXmGH8NjliulEJWrct6cZHX4U6tpsEyV1QtPLpPuXham7zHSy0LXFesqRKhaoLoomzYQ7ujOFPIPLaLbMGdUIT3xXGrzDD+Gxy5XSiErTuW8eInrhrFGDFj/oLFHfix/wBBYo78WP8AoLFGDFz/AKCxF34wdlixF34wdlixR34uf9BYo78XP+gsRd+MH5YsRd+MH5YsUYMXP+gsUd+LH/QWKMGLH/QWKMGLH/QWIu/GDssWJO/GDvoLEXfjB+WLEXfjB2WLFHfi5/0FijvxY/6BpqoYXUzGvFV5nLrMqP8AOQqlT0xbQ/8ADmIW0v8Aw5i/cW0v/DmL9xbS/wDDmL9xbS/8OYv3FtL/AMOYv3FtL/w5h/cW0v8Aw5h/cW0v/DmH9xbS/wDDmL9xbS/8OYf3FtL/AMOYv3FtL/w5i/cW0v8Aw5i/cW0v/DmL9xbS/wDDmH9xbS/8OYv3FtL/AMOYv3FtL/w5i/cW0P8Aw5iFpD0pKsW42pjZiyW5dBJhimnXQhZIsSd+MnfQWJO7GTvoLEnfjJ30FiLvxg/LFiLvxg/LFiTvxk76CxF34wflixF34wflixJ3Yyd9BYi78YPyxYk7sZO+gsSd2MnfQWJO/GTvoLEndjJ30FiLvxg7LFiTuxk76CxR34uf9BYo78WP+gsUd+Ln/QWKO/Fz/oHm501Zf+M9WA9DUaelJOqcgW0v/DmL9xbS/wDDmH9xbS/8OYv3FtL/AMOYv3FtL/w5i/cW0v8Aw5i/cW0v/DmL9xbS/wDDmL9xbS/8OYv3FtL/AMOYv3FtL/w5i/cW0v8Aw5i/cW0v/DmH9xbS/wDDmH9xbS/8OYv3FtL/AMOYv3FtL/w5i/cW0v8Aw5i/cW0v/DmH9xbU/wDDmH9w73JaSoc+m9o/8U4nQz6hKulGhUWKu5dG1j/oLEXfjB+WLFHfix/0FijBix/0FiTuxk76CxF34wflixJ3Yyd9BYi78YPyxYk7sZO+gsSd2MnfQWIu/GD8sWJO/GTvoLEXfjB+WLEndjJ30FiTvxk76CxJ3Yyd9BYi78YOyxYi78YOyxYi78YPywtUo7VEbZP+gaqTt9XjSbR5gLIaCS0oN1zkJ10pMFtT/wAOYv3FtL/w5i/cW0v/AA5i/cW0v/DmL9xbS/8ADmL9xbS/8OYv3FtL/wAOYv3FtL/w5i/cW0v/AA5i/cW0v/DmL9xbS/8ADmL9xbS/8OYv3FtL/wAOYv3FtL/w5i/cW0v/AA5i/cW0v/DmL9xbS/8ADmL9xbS/8OYv3FtL/wAOYf3Ca5n9hzEGeqRieTOQ3rPQ5RLUWg5KqFP9kmCxJ3Yyd9BYk78YOyxYi78YPyxYk78ZO+gsUd+Ln/QWKMGLH/QWJO/GTvoLEnfjB2WLFHfi5/0FijvxY/6CxR34sf8AQWKO/Fz/AKCxJ3Yyd9BYk7sZO+gsSd+MnfQWJO7GTvoLFHfix/0FijvxY/6CxRgxY/6A2pxgZiTT+1D1v8pRK/1CK4X4QoqSq7mLQXoU+otpf+HMP7i2l/4cxfuLaX/hzF+4tpf+HMX7i2l/4cxfuLaX/hzF+4tpf+HMX7i2l/4cxfuLaX/hzF+4tpf+HMX7i2l/4cxfuLaX/hzF+4tpf+HMX7i2l/4cxfuLaX/hzF+4tpf+HMX7i2l/4cw/uLaX/hzF+4tpf+HMX7gimrzpweVR1sIZyCGtdCEmFITro1RYo78XP+gsUd+LH/QWKO/Fj/oLEndjJ30FiTuxk76CxJ34yd9BYk7sZO+gsRd+MHZYsSd2MnfQWJO7GTvoLEndjJ30FiLvxg7LFiLvxg7LFijvxY/6CxR34uf9BYi78YOyxYi78YOyxYo78WP+gsUd+LH/AEFijvxc/wCgsUd+LH/SFpJsB7SpnKFopeRzThfMIRCV27EdM2v0wtTOwG+bCiqFUQayqEitW+Tb8ZUK4diOmSI6EQjerpd7fKm9IN7wziTCVdXwc/yhVVCP/wC+E0k2A9pUzlC0WvG5pwvnC127EdM2v0wtS933hOQtat8m34yoVx7Dc8iR0wjx2Y3yxnIG94ZxJhKur4Of5fCqSbAe0qZyhaLXjc04Xzha7diOmbX6YWpe77wnIWtW+Tb8RUK49hueRI6YR47NeEsZyBveGcSYSrq+Dn+XwqkewHtKmcoWi143NOF84Wu3Yjpm1+mFqXu+8JyFrVvk2/EVCuPYbnkSOmEeOzXhLGcgb3hnEmEq6vg5/l8KpJsB7SpnKFoteNzThfOFrt2I6Ztfphal7vvCcha1b5NvxFQrj2G55EjphHjsxvljOQN7wziTCVdXwc/y+FUk2A9pUzlC0WvG5pwvnC127EdM2v0wtS933hOQn8itW+Tb8RUK49hueRI6YRu2c3yhvSDe8M4kwlXV8HP8vhVI9gPaVM5QtFrxuacL5wtduxHTNr9MLUxd14zsLWrfJt+IqFcew3PIkdMI8dmN8sZyBveGcSYSrq+Dn+XwqkmwHtKmcoWi143NOF84Wu3Yjpm1+mFqYu68J2FrVvk2/EVCuPYbnkSOmEeOzXhLGcgb3hnEmEq6vg5/l8KpJsB7SpnKFoteNzThfOFrt2I6ZtfphamLuvCdha1b5NvxFQrj2G55EjphHjs14SxnIG94ZxJhKur4Of5fCqSbAe0qZyhaLXjc04Xzha7diOmbX6YWpi7rxnYRP8CtW+Tb8RUK49hueRI6YR47NeEsZyBveGcSYSrq+Dn+XwqkmwHtKmcoWi143NOF84Wu3Yjpm1+mFqXu+8JyFrVvk2/EVCuPYbnkSOmEeOzXhLGcgb3hnEmEq6vg5/l8KpJsB7SpnKFoteNzThfOFrt2I6ZtfphamLuvGdhP5Fat8m34ioVx7Dc8iR0wjx2a8JYzkDe8M4kwlXV8HP8AL4VSTYD2lTOULRa8bmnC+cLXbsR0za/TC1MXdeM7C1q3ybfiKhXHsNzyJHTCPHZrwljOQN7wziTCVdXwc/y+FUk2A9pUzlC0WvG5pwvnC127EdM2v0wtTF3XjOwtat8m34ioVx7Dc8iR0wjx2a8JYzkDe8M4kwlXV8HP8vhVJNgPaVM5QtFrxuacL5wtduxHTNr9MLUxd14TsIn+BWrfJt+IqFcew3PIkdMI8dmvCWM5A3vDOJMJV1fBz/L4VSTYD2lTOULRa8bmnC+cLXbsR0za/TC1MXdeM7C1q3ybfiKhXHsNzyJHTCPHZrwljOQN7wziTCVdXwc/y+FUk2A9pUzlC0WvG5pwvnC127EdM2v0wtTOwG+cha1b5NvxFQrj2G55EjphHjs14SxnIG94ZxJhKur4Of5fCqSbAe0qZyhaLXjc04Xzha7diOmbX6YWpnYDfOQtat8m34ioVx7Dc8iR0wjx2a8JYzkDe8M4kwlXV8HP8vhVI9gPaVM5QtFrxuacL5wtduxHTNr9MLUxd14TsIn+BWrfJt+IqFcew3PIkdMI8dmvCWM5A3vDOJMJV1fBz/LDf1eQ0p8hpT5DT7f8jSnyGlPkNKfIaU+Q/q8hpT5D+ryH9XkNKfIaU+Q/q8hpT5DSnyGlPkNKfIaU+QpHsF6yhnKForeNzzZfMITzSNKfIaU+Q0p8hpT5DSnyGlPkNKfIaU+Q0p8hpT5DSnyGlPkNKfIafb/kaU+Q0+3/ACNPt/yNKfIaU+Qrs2M6Zpfphambut84FV9bSlCEf7j+ryGlPkNKfIaU+Q0p8h/V5DSnyGlPkNKfIaU+Q0+3/I0p8hpT5DSnyGlPkNKfIaU+Q0p8gsvqpRpFat8mz4ioTQkOLYjpkiOhA0p8hpT5DSnyGlPkNKfIafYaU+Q0p8h/V5DSnyGlPkNPt/yNKfIaU+Q0+3/I0p8hp9hp9hp9g8tntsuZ0g7vDOJPOEq6vg5/lCq2lGlH+2lKBpT5DSnyGn2GlPkNKfIf1eQ/1GlPkNKfIafb/kf1eQ0p8h/V5D+ryH9XkNKfIaU+Q0p8h/V5DSnyFstLPSYMkWy0s9JgyRbFSv02LKFsVK/TYsoWxUr9NiyhbFSv02LKFstLPSYMkWy0s9JgyRbFSv02HKFsVK/TYcoWy0s9JgyRbLSz0mDJFsVK/TYsoWxUr9NiyhbLSz0mDJFstLPSYMkWxUr9NiyhbFSv02LKFsVK/TYsoWxUr9NiyhajSR5rKMB5bIgppWQSulUv+FxYy4N9axYu4N+axYu4N+axYu4N+axYw4N9bBYw4N9bBYu4d+axYu4N+axYu4N+axYu4N+axYu4N+axYu4d+axYu4N+axYu4N+axYw4N9bBYu4N+axYu4N+axYw4d9axYw4d9axYy4N9aw9KuXVRpgPfTI0nrtDFoOLQZoSolZVIthpX6TFlC2KlfpsWULYqV+mw5QtipX6bDlC2WlnpMGSLZaWekwZItipX6bFlC2KlfpsWULYqV+mxZQtipX6bFlC2KlfpsWULYqV+mxZQtipX6bFlC2KlfpsWULYqV+mxZQtipX6bFlC2KlfpsWULYqV+mxZQtlpZ6TBki2WlnpMGSHM822shvUdj5WLLJIUScolnV1E6RYy4N+axYu4N+axYu4N+axYu4MQahYs4N/ahYs4N/ahYu4MQahYu4N+axYw4N+axYu4d+axYu4d+axYw4N+axYu4N+axYu4N+axYu4d+axYw4N+axYw4N+axYu4N+axYu4N+axYw4N+aw+Xu3VdN6XQ5lyjCDC1WhKx6muvrLC2OlXosGULZaWekwZItipX6bFlC2KlfpsWULYqV+mxZQtipX6bFlC2KlfpsOULYqV+mw5QtipX6bFlC2KlfpsWULYqV+mxZQtipX6bFlC2KlfpsWULYqV+mxZQtlpZ6TBki2WlnpMGSLZaWekwZItlpZ6TBki2KlfpsOULYaU+kxZQclFmWn7Gl/PQ9cpqXMSUlBCNCmgsWMODfmsWLuDfmsWLuDfmsWLuHfmsWLuHfmsWLuDfmsWLuDfmsWLuDfmsWLuDfmsWLuDEGoWLuDEGoWLuHfmsWLuDfmsWLuDfmsWLuDfmsWLuDEGoWLuDEGoWLuHfmsWLuHfmsLVNuBCPzWsWp0ld6VmIktjSUz6SVNJf8FC2WlnpMGSLZaWekwZItipX6bFlC2KlfpsWULYqV+mxZQtipX6bFlC2WlnpMGSLZaWekwZItlpZ6TBki2WlnpMGSLYqV+mxZQtipX6bFlC2KlfpsWULYqV+mxZQtipX6bFlC2KlfpsWULZaWekwZItlpZ6TBki2WlnpMGSF626UNKEkLlMWoZ/R3QKqfcBxBJyW1rQldRC/2Fizg39rFi7g35rFi7g35rFi7g35rFi7g35rFi7g35rFi7g35rFi7g35rFi7g35rFi7g35rFi7g35rFi7h35rFjDg31sFi7g35rFi7h35rFi7h35rFi7g35rFi7gxBqFizg39qD5oSw0JYDH+7mk0xpZVlNRU7QlTSsLYqVekw5QtlpZ6TBki2WlnpMGSLZaWekwZItlpZ6TBki2WlnpMGSLZaWekwZItipX6bFlC2KlfpsWULYqV+mxZQtipX6bFlC2WlnpMGSLZaWekwZItlpZ6TBki2WlnpMGSLYqV+mw5QtipX6bDlC2WlnpMGSLZaWekwZItlpZ6TBki2WlnpMGTCurabBMldQRCU8uk+5eFqbvMdLLQtcV6ypEqFqguiibNhDu7X4VuQeW0W2YM6oQnviuNXmGH8RkliulEJWnct48RPX4U69psEyV1IHlCU8ug/PgRC1OXmOlloWuK9ZUiVC1P3RRNmwh3dL8KweW0W2YM6oQnviuNXmGH8NjliulEJWrct6cZHX4U69psEyV1IHlCU8ug/PgRC1OXmOlloWuK9ZUiVC1P3RRNmwh/dmcK3IPHaDbMGdUIT3xXGrzDD+GxyxXSiErVuW9OMjr8Kde02CZK6kD+EQlPbpPuXhanLzHSy0LXFesqRKhan7oomzYQ/u1+FbkHltFtmDOqEJ74rjV5hh/DY5YrpRCVq3LenGR1+FOvabBMldSB5QlPbpPuXhanLzHSy0LXFesqRKhan7oomzYQ/u1+FbkHltFtmDOqEJ74rjV5hh/DY5YrpRCVq3LenGR1+FOrabBMldQ8oSnl0H58CIWpy8x0stC1xXrKkSoWp65yZsyEO7pfhWDy2i2zBnVCE98Vxq8ww/hscsV0ohK1blvTjI6/CnVtNgmSuofwiEp7dJ9y8LU5eY6WWha4r1lSJULU/dFE2bCH92Zwrcg8totswZ1QhPfFcavMMX4bHLldKIStW5b04yOvwp17TYJkrqQPKEp7dJ9y8LU5eY6WWha4r1lSJULU/dFE2bCHd0vwrB5bRbZgzqhCe9K41eYYfw2OWK6UQlaty3pxkdfhTq2mwTJXUPKEp7dJ9y8LU5eY6WWha471lyJcLU/dFE2bCH92vwrcg8totswZ1QhPfFcavMMP4bHLFdKIStW5b04yOvwp1bTYJkrqHlCU8ui+5eFqcvMdLLQtcV6ypEqFqfuiibNhD+7M4VuQeW0W2YM6oQnviuNXmGL8NjlyulEJWrct6cZHX4U6tpsEyV1DyhKeXSfcvC1OXmOlloWuK9ZUiVC1P3RRNmwh/dmcK3IPLaLbMGdUIT3xXGrzDD+GxyxXSiErVuW9OMjr8Kde02CZK6kDyhKe3SfcvC1OXmOlloWuK9ZUiVC1P3RRNmwh3dL8KweW0W2YM6oQnviuNXmGH8NjliulEJWrct6cZHX4U6tpsEyV1D+EQlPbpPuXH/UJU5eY6WWha4r1lSJULU/dFE2bCH92Zwrcg8totswZ1QhPelcavMMP4jJLFdKIStW5b04yOvwp1bTYJkrqH8IhKd3QfnwIH/UJU5eY6WWha4r1lSJULU/dFE2bCH92Zwrcg8totswZ1QhPfFcavMMP4bJLFdKIStW5b04yOvwp1bTYJkrqHlCU8ug/PgQP+oSpy8x0stC1xXrKkSoWp+6KJs2EP7szhW5B5bRbZgzqhCe+K41eYYfxGSWK6UQlaty3pxkdfhTq2mwTJXUPKEp5dB+fAiFqcvMdLLQtcV6ypEqFqfuiibNhD+7X4VuQeW0W2YM6oQnviuNXmGH8NjliulEJWrct6cZHX4U69pMEyV1DyhKeXQfnwIhanLzHSy0LXFesqRKhan7oomzYQ/u1+FbkHltFtmDOqEJ70rjV5h3/hsfwF8oStW5b04yOvwp17TYJkrqQPKEp7dJ9y8LU5eY6WWha4r1lSJULU/dFE2bCH92Zwrcg8totswZ1QhPelcavMMP4bHLFdKIStW5b04yOvwp17TYJkrqQPKEp7dJ9y8LU5eY6WWha4r1lSJULU/dFE2bCH92Zwrcg8totswZ1QhPfFcavMMP4bHLFdKIStW5b04yOvwp1bTYJkrqHlCU9uk+5eFqcvMdLLQtcV6ypEqFqfuiibNhDu6X4Vg8totswZ1QhPfFcavMMP4bHLFdKIStW5b04yOvwp1bTYJkrqhae3SfcvC1OXmOlloWuK9ZUiVC1P3RRNmwh/dmcK3IPLaLbMGdUIT3xXGrzDD+Ixy5XSiErVuW9OMjrhv/xAAUEQEAAAAAAAAAAAAAAAAAAADA/9oACAECAQECADkX/8QAFBEBAAAAAAAAAAAAAAAAAAAAwP/aAAgBAgEDPwA5F//EABsRAAMBAQEBAQAAAAAAAAAAAAERQDAAECBQ/9oACAEDAQECAMhKJRkZTKJRkcxkZTKJRkcxkZTKJRkZTKZRKMjmMjKZRKMjmMjKZRKMjKZTKJRkcxkZTKJRkcxkZTKJRkcxkZTmkkkklzbbbbaSSSSXNtttvkkkkkm2222+SSSSSbbbbb5JJJJLI5DM5CUSiU5DM5CUSiUynISiUSmU5CUSiU5DM5CUSiU5DM5CUSiUynISiUSnIZnISiUSmU5CUSiU/C1f2pV6JRKPyhkZTKJRkcxkZTKJRkZTKZRKMjKZTKJRkZTKZRKMjmMjKZRKMjKZTKJRkZTKZRKMjmMjKZRKMjmMjKc0kkkkubbbbbSSSSS5tttt8kkkkk22223ySSSSTbbbbfJJJJJZHIZnISiUSmU5CUSiUynISiUSnIZnISiUSnIZnISiUSmU5CUSiUynISiUSmU5CUSiU5DM5CUSjNttttvkkkklz8frb5JJJJc238N8kkkkvXzb58kkkklz8bbbeQlGRlMplEoyOYyMplEoyOYyMplEoyMplMolGRlMplEoyMplMolGRzGRlMolGRzGRlMolGRzGRlMovMplO6+m22234sX42238L5XNt83z0bbbbxWhlOQlEolOQzOQlEolMpyEolEpyGZyEolEpyGZyEolEpyGZyEolEplOQlEolMpyEolEpyGZyEolEpyGZyEolGf//EABoRAQABBQAAAAAAAAAAAAAAABFAUGCQoLD/2gAIAQMBAz8AzbFUYru2lkvNt//Z;clipPath=inset(17% 33.33% 34% 22%);aspect=fixed;" vertex="1" parent="Xp9iFOaXOIQYrhqozkpy-1">
          <mxGeometry x="520.0899999999999" y="120" width="79.91" height="58.44164179104477" as="geometry" />
        </mxCell>
      </root>
    </mxGraphModel>
  </diagram>
  <diagram name="ams2_dash_yellow" id="SIlFl2yH8DfpzhI4xdGF">
    <mxGraphModel dx="1113" dy="779" grid="1" gridSize="10" guides="1" tooltips="1" connect="1" arrows="1" fold="1" page="1" pageScale="1" pageWidth="827" pageHeight="1169" background="#000000" math="0" shadow="0">
      <root>
        <mxCell id="Jw5E07BNNPLj0slqYA29-0" />
        <mxCell id="Jw5E07BNNPLj0slqYA29-1" parent="Jw5E07BNNPLj0slqYA29-0" />
        <mxCell id="Jw5E07BNNPLj0slqYA29-2" value="" style="rounded=0;whiteSpace=wrap;html=1;fillColor=#000000;" vertex="1" parent="Jw5E07BNNPLj0slqYA29-1">
          <mxGeometry x="200" y="120" width="480" height="272" as="geometry" />
        </mxCell>
        <mxCell id="Jw5E07BNNPLj0slqYA29-3" value="" style="endArrow=none;html=1;rounded=0;strokeColor=#999999;strokeWidth=3;" edge="1" parent="Jw5E07BNNPLj0slqYA29-1">
          <mxGeometry width="50" height="50" relative="1" as="geometry">
            <mxPoint x="200" y="180" as="sourcePoint" />
            <mxPoint x="680" y="180" as="targetPoint" />
          </mxGeometry>
        </mxCell>
        <mxCell id="Jw5E07BNNPLj0slqYA29-4" value="" style="endArrow=none;html=1;rounded=0;strokeColor=#999999;strokeWidth=3;exitX=0.25;exitY=1;exitDx=0;exitDy=0;entryX=0.25;entryY=0;entryDx=0;entryDy=0;" edge="1" parent="Jw5E07BNNPLj0slqYA29-1">
          <mxGeometry width="50" height="50" relative="1" as="geometry">
            <mxPoint x="359.9999999999999" y="392" as="sourcePoint" />
            <mxPoint x="359.9999999999999" y="120" as="targetPoint" />
          </mxGeometry>
        </mxCell>
        <mxCell id="Jw5E07BNNPLj0slqYA29-5" value="" style="endArrow=none;html=1;rounded=0;strokeColor=#999999;strokeWidth=3;exitX=0.25;exitY=1;exitDx=0;exitDy=0;" edge="1" parent="Jw5E07BNNPLj0slqYA29-1">
          <mxGeometry width="50" height="50" relative="1" as="geometry">
            <mxPoint x="520" y="392" as="sourcePoint" />
            <mxPoint x="520" y="180" as="targetPoint" />
          </mxGeometry>
        </mxCell>
        <mxCell id="Jw5E07BNNPLj0slqYA29-6" value="" style="endArrow=none;html=1;rounded=0;strokeWidth=3;strokeColor=#999999;exitX=0;exitY=0.5;exitDx=0;exitDy=0;" edge="1" parent="Jw5E07BNNPLj0slqYA29-1">
          <mxGeometry width="50" height="50" relative="1" as="geometry">
            <mxPoint x="199.9999999999999" y="320" as="sourcePoint" />
            <mxPoint x="360" y="320" as="targetPoint" />
          </mxGeometry>
        </mxCell>
        <mxCell id="Jw5E07BNNPLj0slqYA29-7" value="" style="endArrow=none;html=1;rounded=0;strokeWidth=3;strokeColor=#999999;exitX=0;exitY=0.5;exitDx=0;exitDy=0;" edge="1" parent="Jw5E07BNNPLj0slqYA29-1">
          <mxGeometry width="50" height="50" relative="1" as="geometry">
            <mxPoint x="200" y="350" as="sourcePoint" />
            <mxPoint x="360.0000000000001" y="350" as="targetPoint" />
          </mxGeometry>
        </mxCell>
        <mxCell id="Jw5E07BNNPLj0slqYA29-8" value="" style="endArrow=none;html=1;rounded=0;strokeWidth=3;strokeColor=#999999;" edge="1" parent="Jw5E07BNNPLj0slqYA29-1">
          <mxGeometry width="50" height="50" relative="1" as="geometry">
            <mxPoint x="250" y="392" as="sourcePoint" />
            <mxPoint x="250" y="320" as="targetPoint" />
          </mxGeometry>
        </mxCell>
        <mxCell id="Jw5E07BNNPLj0slqYA29-9" value="" style="endArrow=none;html=1;rounded=0;strokeWidth=3;strokeColor=#999999;" edge="1" parent="Jw5E07BNNPLj0slqYA29-1">
          <mxGeometry width="50" height="50" relative="1" as="geometry">
            <mxPoint x="305" y="392" as="sourcePoint" />
            <mxPoint x="305" y="320" as="targetPoint" />
          </mxGeometry>
        </mxCell>
        <mxCell id="Jw5E07BNNPLj0slqYA29-10" value="" style="endArrow=none;html=1;rounded=0;strokeWidth=3;strokeColor=#999999;exitX=0;exitY=0.5;exitDx=0;exitDy=0;" edge="1" parent="Jw5E07BNNPLj0slqYA29-1">
          <mxGeometry width="50" height="50" relative="1" as="geometry">
            <mxPoint x="520" y="300" as="sourcePoint" />
            <mxPoint x="680.0000000000001" y="300" as="targetPoint" />
          </mxGeometry>
        </mxCell>
        <mxCell id="Jw5E07BNNPLj0slqYA29-11" value="" style="endArrow=none;html=1;rounded=0;strokeWidth=3;strokeColor=#999999;" edge="1" parent="Jw5E07BNNPLj0slqYA29-1">
          <mxGeometry width="50" height="50" relative="1" as="geometry">
            <mxPoint x="280" y="180" as="sourcePoint" />
            <mxPoint x="280" y="120" as="targetPoint" />
          </mxGeometry>
        </mxCell>
        <mxCell id="Jw5E07BNNPLj0slqYA29-12" value="" style="endArrow=none;html=1;rounded=0;strokeWidth=3;strokeColor=#999999;" edge="1" parent="Jw5E07BNNPLj0slqYA29-1">
          <mxGeometry width="50" height="50" relative="1" as="geometry">
            <mxPoint x="520" y="180" as="sourcePoint" />
            <mxPoint x="520" y="120" as="targetPoint" />
          </mxGeometry>
        </mxCell>
        <mxCell id="Jw5E07BNNPLj0slqYA29-13" value="" style="rounded=0;whiteSpace=wrap;html=1;fillColor=#FF8000;strokeColor=#d79b00;opacity=30;" vertex="1" parent="Jw5E07BNNPLj0slqYA29-1">
          <mxGeometry x="280" y="120" width="80" height="60" as="geometry" />
        </mxCell>
        <mxCell id="Jw5E07BNNPLj0slqYA29-14" value="" style="rounded=0;whiteSpace=wrap;html=1;fillColor=#FF0000;strokeColor=#b85450;opacity=30;" vertex="1" parent="Jw5E07BNNPLj0slqYA29-1">
          <mxGeometry x="200" y="120" width="80" height="60" as="geometry" />
        </mxCell>
        <mxCell id="Jw5E07BNNPLj0slqYA29-15" value="" style="rounded=0;whiteSpace=wrap;html=1;fillColor=#FFFF00;strokeColor=#d6b656;fillStyle=auto;" vertex="1" parent="Jw5E07BNNPLj0slqYA29-1">
          <mxGeometry x="360" y="120" width="160" height="60" as="geometry" />
        </mxCell>
        <mxCell id="Jw5E07BNNPLj0slqYA29-16" value="" style="rounded=0;whiteSpace=wrap;html=1;fillColor=#7F00FF;strokeColor=#9673a6;opacity=30;" vertex="1" parent="Jw5E07BNNPLj0slqYA29-1">
          <mxGeometry x="520" y="300" width="160" height="92" as="geometry" />
        </mxCell>
        <mxCell id="Jw5E07BNNPLj0slqYA29-17" value="" style="rounded=0;whiteSpace=wrap;html=1;fillColor=#FFFF00;strokeColor=#9673a6;opacity=30;" vertex="1" parent="Jw5E07BNNPLj0slqYA29-1">
          <mxGeometry x="520" y="180" width="160" height="120" as="geometry" />
        </mxCell>
        <mxCell id="Jw5E07BNNPLj0slqYA29-18" value="" style="rounded=0;whiteSpace=wrap;html=1;fillColor=#00FF00;strokeColor=#9673a6;opacity=30;" vertex="1" parent="Jw5E07BNNPLj0slqYA29-1">
          <mxGeometry x="600" y="120" width="80" height="60" as="geometry" />
        </mxCell>
        <mxCell id="Jw5E07BNNPLj0slqYA29-19" value="" style="rounded=0;whiteSpace=wrap;html=1;opacity=30;fillColor=#d80073;strokeColor=#A50040;fontColor=#ffffff;" vertex="1" parent="Jw5E07BNNPLj0slqYA29-1">
          <mxGeometry x="200" y="350" width="50" height="42" as="geometry" />
        </mxCell>
        <mxCell id="Jw5E07BNNPLj0slqYA29-20" value="" style="rounded=0;whiteSpace=wrap;html=1;opacity=30;fillColor=#60a917;fontColor=#ffffff;strokeColor=#2D7600;" vertex="1" parent="Jw5E07BNNPLj0slqYA29-1">
          <mxGeometry x="250" y="350" width="55" height="42" as="geometry" />
        </mxCell>
        <mxCell id="Jw5E07BNNPLj0slqYA29-21" value="" style="rounded=0;whiteSpace=wrap;html=1;opacity=30;fillColor=#1ba1e2;fontColor=#ffffff;strokeColor=#006EAF;" vertex="1" parent="Jw5E07BNNPLj0slqYA29-1">
          <mxGeometry x="305" y="350" width="55" height="42" as="geometry" />
        </mxCell>
        <mxCell id="Jw5E07BNNPLj0slqYA29-22" value="" style="rounded=0;whiteSpace=wrap;html=1;opacity=30;fillColor=#d80073;strokeColor=#A50040;fontColor=#ffffff;" vertex="1" parent="Jw5E07BNNPLj0slqYA29-1">
          <mxGeometry x="200" y="320" width="50" height="30" as="geometry" />
        </mxCell>
        <mxCell id="Jw5E07BNNPLj0slqYA29-23" value="" style="rounded=0;whiteSpace=wrap;html=1;opacity=30;fillColor=#60a917;fontColor=#ffffff;strokeColor=#2D7600;" vertex="1" parent="Jw5E07BNNPLj0slqYA29-1">
          <mxGeometry x="250" y="320" width="55" height="30" as="geometry" />
        </mxCell>
        <mxCell id="Jw5E07BNNPLj0slqYA29-24" value="" style="rounded=0;whiteSpace=wrap;html=1;opacity=30;fillColor=#1ba1e2;fontColor=#ffffff;strokeColor=#006EAF;" vertex="1" parent="Jw5E07BNNPLj0slqYA29-1">
          <mxGeometry x="305" y="320" width="55" height="30" as="geometry" />
        </mxCell>
        <mxCell id="Jw5E07BNNPLj0slqYA29-25" style="edgeStyle=orthogonalEdgeStyle;rounded=0;orthogonalLoop=1;jettySize=auto;html=1;exitX=0.5;exitY=1;exitDx=0;exitDy=0;" edge="1" parent="Jw5E07BNNPLj0slqYA29-1" source="Jw5E07BNNPLj0slqYA29-22" target="Jw5E07BNNPLj0slqYA29-22">
          <mxGeometry relative="1" as="geometry" />
        </mxCell>
        <mxCell id="Jw5E07BNNPLj0slqYA29-26" value="" style="endArrow=none;html=1;rounded=0;strokeWidth=3;strokeColor=#999999;" edge="1" parent="Jw5E07BNNPLj0slqYA29-1">
          <mxGeometry width="50" height="50" relative="1" as="geometry">
            <mxPoint x="599.5699999999999" y="180" as="sourcePoint" />
            <mxPoint x="599.5699999999999" y="120" as="targetPoint" />
          </mxGeometry>
        </mxCell>
        <mxCell id="BfkIHCOCWcLQSD95TjDN-0" value="" style="endArrow=none;html=1;rounded=0;strokeWidth=3;strokeColor=#999999;exitX=0;exitY=0.5;exitDx=0;exitDy=0;" edge="1" parent="Jw5E07BNNPLj0slqYA29-1">
          <mxGeometry width="50" height="50" relative="1" as="geometry">
            <mxPoint x="360" y="349.52" as="sourcePoint" />
            <mxPoint x="520.0000000000001" y="349.52" as="targetPoint" />
          </mxGeometry>
        </mxCell>
        <mxCell id="BfkIHCOCWcLQSD95TjDN-1" value="" style="rounded=0;whiteSpace=wrap;html=1;fillColor=#0050ef;strokeColor=#001DBC;opacity=30;fontColor=#ffffff;" vertex="1" parent="Jw5E07BNNPLj0slqYA29-1">
          <mxGeometry x="360" y="350" width="160" height="40" as="geometry" />
        </mxCell>
      </root>
    </mxGraphModel>
  </diagram>
  <diagram id="9fKWGq9RO71x4gmKNb__" name="Page-2">
    <mxGraphModel dx="946" dy="662" grid="1" gridSize="10" guides="1" tooltips="1" connect="1" arrows="1" fold="1" page="1" pageScale="1" pageWidth="827" pageHeight="1169" math="0" shadow="0">
      <root>
        <mxCell id="0" />
        <mxCell id="1" parent="0" />
        <mxCell id="X4NzHGwgGJXgPXnHOqPB-1" value="" style="rounded=0;whiteSpace=wrap;html=1;fillColor=#FFFF00;strokeColor=#FFFF00;fillStyle=auto;" vertex="1" parent="1">
          <mxGeometry x="150" y="310" width="160" height="60" as="geometry" />
        </mxCell>
      </root>
    </mxGraphModel>
  </diagram>
  <diagram id="RINdauYvGiDSB54pOQ8C" name="Page-3">
    <mxGraphModel dx="946" dy="662" grid="1" gridSize="10" guides="1" tooltips="1" connect="1" arrows="1" fold="1" page="1" pageScale="1" pageWidth="827" pageHeight="1169" math="0" shadow="0">
      <root>
        <mxCell id="0" />
        <mxCell id="1" parent="0" />
        <mxCell id="GlxvjukLYDDYJPT6c0YE-1" value="" style="rounded=0;whiteSpace=wrap;html=1;fillColor=#B3B3B3;strokeColor=#666666;fontColor=#333333;" vertex="1" parent="1">
          <mxGeometry x="400" y="190" width="160" height="60" as="geometry" />
        </mxCell>
      </root>
    </mxGraphModel>
  </diagram>
</mxfile>
